<svg id="Layer_1" data-name="Layer 1" xmlns="http://www.w3.org/2000/svg" viewBox="0 0 2422 429"><defs><style>.cls-1,.cls-2{fill:#fff;}.cls-2{opacity:0.5;}</style></defs><title>logo-long</title><polygon class="cls-1" points="247.63 0.05 0 428.95 190.83 428.95 438.46 0.05 247.63 0.05"/><polygon class="cls-1" points="617 273.58 467.8 15.15 378.18 170.38 480.72 347.99 482.65 351.34 404.94 273.72 318.59 273.72 228.97 428.95 527.38 428.95 617 273.72 616.92 273.72 617 273.58"/><path class="cls-1" d="M682.78,49.25h-3.24a.54.54,0,1,1,0-1.08h3.24l.54.54A.48.48,0,0,1,682.78,49.25Zm1.62,185.93h-3.24a.54.54,0,0,1,0-1.08h3.24a.54.54,0,0,1,0,1.08ZM695.76,49.25a.54.54,0,1,1,0-1.08h3.78l.54.54-.54.54ZM843.58,380.58a146.46,146.46,0,0,1-146.74-147,2.16,2.16,0,1,1,4.32,0,140,140,0,0,0,11.1,55.67,142.57,142.57,0,0,0,76.08,75.94,143.22,143.22,0,0,0,110.47,0,142.52,142.52,0,0,0,76.07-75.94A140,140,0,0,0,986,233.56a2.17,2.17,0,0,1,4.33,0A146,146,0,0,1,979.22,290a150.47,150.47,0,0,1-31.67,47.83,144.56,144.56,0,0,1-47.39,31.62A146.64,146.64,0,0,1,843.58,380.58ZM697.38,235.18a.54.54,0,0,1,0-1.08h3.78a.48.48,0,0,1,.54.54l-.54.54Zm2.18,1.62a1.92,1.92,0,0,1-2.18-2.16V48.71a2.18,2.18,0,0,1,4.36,0V234.64A1.92,1.92,0,0,1,699.55,236.81ZM757.89,50.88H699.55a1.92,1.92,0,0,1-2.18-2.16,1.92,1.92,0,0,1,2.18-2.16h58.34a1.92,1.92,0,0,1,2.18,2.16A1.92,1.92,0,0,1,757.89,50.88Zm.54,185.93H700.1a2.16,2.16,0,1,1,0-4.32h58.33a2.16,2.16,0,1,1,0,4.32ZM699,8.72v-7a.54.54,0,1,1,1.08,0v7l-.54.54A.48.48,0,0,1,699,8.72Zm0,0v-7a.54.54,0,1,1,1.08,0v7l-.54.54A.48.48,0,0,1,699,8.72Zm0,20v-7a.54.54,0,1,1,1.08,0v7l-.54.54A.48.48,0,0,1,699,28.72Zm0,0v-7a.54.54,0,1,1,1.08,0v7l-.54.54A.48.48,0,0,1,699,28.72Zm0,20V39.53a.48.48,0,0,1,.54-.54l.54.54v9.19l-.54.54A.48.48,0,0,1,699,48.71Zm0,0V39.53a.48.48,0,0,1,.54-.54l.54.54v9.19l-.54.54A.48.48,0,0,1,699,48.71Zm4,206.47h-.54V254.1l20-20h1.08v1.08l-20,20ZM708.66,279h-.54v-1.08L751.9,234.1h.54a.68.68,0,0,1,0,1.08L709.2,279Zm7.09,20a.67.67,0,0,1,0-1.08l45.4-43.78h.54a.68.68,0,0,1,0,1.08L716.29,299Zm11.35,18.38a.47.47,0,0,1-.54-.54c-.36-.35-.36-.54,0-.54l41.62-42.16h1.08v1.08L727.1,316.8Zm12.43,16.21H739v-1.08l42.16-41.62c0-.35.08-.54.27-.54s.27.19.27.54v.54l-41.62,42.16Zm14.59,14.59h-.54v-1.08l42.16-41.62c0-.35.08-.54.27-.54s.27.19.27.54V306l-41.62,42.16Zm89.45-25.94a84.57,84.57,0,0,1-34.43-7,90.9,90.9,0,0,1-27.92-18.92,89.54,89.54,0,0,1-19-28.11,85.88,85.88,0,0,1-7-34.59c0-1.44.81-2.16,2.43-2.16s2.43.73,2.43,2.16A84.14,84.14,0,0,0,784.31,293,86.27,86.27,0,0,0,811,311.12a82,82,0,0,0,65.2,0,85.22,85.22,0,0,0,44.71-44.86,80.67,80.67,0,0,0,6.74-32.7c0-1.44.81-2.16,2.43-2.16s2.43.73,2.43,2.16a85.85,85.85,0,0,1-7.05,34.59,87.38,87.38,0,0,1-19.25,28.11A94.31,94.31,0,0,1,878,315.18,84.56,84.56,0,0,1,843.58,322.2Zm-85.67-85.4a1.91,1.91,0,0,1-2.16-2.16V48.71a2.16,2.16,0,1,1,4.32,0V234.64A1.91,1.91,0,0,1,757.91,236.81ZM757.64,9.26c-.18,0-.27-.18-.27-.54l-.54-7,.81-.54c.54,0,.81.19.81.54l-.54,7C757.91,9.08,757.82,9.26,757.64,9.26Zm0,20c-.18,0-.27-.18-.27-.54l-.54-7,.81-.54c.54,0,.81.19.81.54l-.54,7C757.91,29.08,757.82,29.26,757.64,29.26Zm0,20c-.18,0-.27-.18-.27-.54l-.54-9.19.81-.54.81.54-.54,9.19C757.91,49.08,757.82,49.25,757.64,49.25Zm5.66,0h-5.41a.48.48,0,0,1-.54-.54l.54-.54h5.41l.54.54A.48.48,0,0,1,763.3,49.25Zm1.63,185.93h-5.41a.47.47,0,0,1-.54-.54l.54-.54h5.41a.54.54,0,1,1,0,1.08ZM772.5,359H772c-.73,0-.73-.36,0-1.08l41.62-43.24c0-.72.35-.72,1.08,0v.54Zm1.62-309.7a.48.48,0,0,1-.54-.54l.54-.54h7.57l.54.54-.54.54Zm1.62,185.93a.47.47,0,0,1-.54-.54l.54-.54h7.57a.48.48,0,0,1,.54.54l-.54.54Zm14.59,133h-.54v-1.08l47.56-47c0-.35.08-.54.27-.54s.27.19.27.54c.36,0,.54.09.54.27s-.18.27-.54.27l-47,47.56ZM812,375.71v-.54c-.36,0-.54-.08-.54-.27s.18-.27.54-.27l32.43-33h1.08v1.08l-33,32.43A.48.48,0,0,1,812,375.71ZM837.9,379h-.54c-.36,0-.54-.08-.54-.27s.18-.27.54-.27l7-7.57L982.76,234.1h.54v1.08L845.47,371.39Zm7,1.62a1.91,1.91,0,0,1-2.16-2.16V322.2a2.16,2.16,0,1,1,4.32,0v56.21A1.91,1.91,0,0,1,844.93,380.58ZM844.66,306c-.19,0-.27-.18-.27-.54l-.54-3.24c0-.36.27-.54.81-.54s.81.18.81.54l-.54,3.24C844.93,305.81,844.84,306,844.66,306Zm0,16.76-.27-.54-.54-5.41c0-.35.27-.54.81-.54s.81.19.81.54l-.54,5.41C844.93,322.57,844.84,322.74,844.66,322.74Zm0,65.4c-.19,0-.27-.19-.27-.54l-.54-9.19c0-.35.27-.54.81-.54l.81.54-.54,9.19C844.93,388,844.84,388.14,844.66,388.14Zm0,20c-.19,0-.27-.19-.27-.54l-.54-9.19c0-.36.27-.54.81-.54l.81.54-.54,9.19C844.93,408,844.84,408.14,844.66,408.14Zm0,20c-.19,0-.27-.19-.27-.54l-.54-9.19c0-.36.27-.54.81-.54l.81.54-.54,9.19C844.93,428,844.84,428.14,844.66,428.14Zm.27-85.4h-.54v-1.08l25.4-23.78h1.08V319l-25.4,23.78Zm23.78,34.59h-.54v-1.08l120-120c0-.35.08-.54.27-.54s.27.19.27.54v.54ZM907.09,49.25a.54.54,0,1,1,0-1.08h5.41l.54.54-.54.54Zm1.62,185.93a.54.54,0,1,1,0-1.08h5.4a.48.48,0,0,1,.54.54l-.54.54Zm1.62,129.18h-.54v-.54L973.57,300c0-.35.08-.54.27-.54s.27.19.27.54c.35,0,.54.09.54.27s-.19.27-.54.27l-63.24,63.78Zm20-315.11h-5.4a.48.48,0,0,1-.54-.54l.54-.54h5.4l.54.54A.48.48,0,0,1,930.33,49.25Zm1.62,185.93h-5.41a.47.47,0,0,1-.54-.54l.54-.54h5.41a.54.54,0,1,1,0,1.08ZM928.71,259h-.54c-.73-.72-.73-1.08,0-1.08l25.4-23.78h.54a.68.68,0,0,1,0,1.08Zm60-208.09H929.8a1.92,1.92,0,0,1-2.18-2.16c0-1.44.9-2.16,2.7-2.16H988.7a1.92,1.92,0,0,1,2.16,2.16A1.92,1.92,0,0,1,988.68,50.88ZM930.33,236.81a1.91,1.91,0,0,1-2.16-2.16V48.71a2.16,2.16,0,1,1,4.32,0V234.64A1.91,1.91,0,0,1,930.33,236.81Zm58.91,0H930.87a2.16,2.16,0,0,1,0-4.32h58.37a2.16,2.16,0,0,1,0,4.32ZM930.06,9.26c-.18,0-.27-.18-.27-.54l-.54-7,.81-.54c.54,0,.81.19.81.54l-.54,7C930.33,9.08,930.24,9.26,930.06,9.26Zm0,20c-.18,0-.27-.18-.27-.54l-.54-7,.81-.54c.54,0,.81.19.81.54l-.54,7C930.33,29.08,930.24,29.26,930.06,29.26Zm0,20c-.18,0-.27-.18-.27-.54l-.54-9.19.81-.54.81.54-.54,9.19C930.33,49.08,930.24,49.25,930.06,49.25ZM988.7,236.81a1.91,1.91,0,0,1-2.16-2.16V48.71a2.16,2.16,0,1,1,4.32,0V234.64A1.91,1.91,0,0,1,988.7,236.81Zm2.7-187.55h-3.24a.54.54,0,1,1,0-1.08h3.24l.54.54A.48.48,0,0,1,991.4,49.25ZM988.16,8.72v-7a.54.54,0,1,1,1.08,0v7l-.54.54A.47.47,0,0,1,988.16,8.72Zm0,20v-7a.54.54,0,1,1,1.08,0v7l-.54.54A.47.47,0,0,1,988.16,28.72Zm0,20V39.53a.48.48,0,0,1,.54-.54l.54.54v9.19l-.54.54A.47.47,0,0,1,988.16,48.71ZM993,235.18h-3.24a.54.54,0,1,1,0-1.08H993a.54.54,0,0,1,0,1.08Zm9.73-185.93a.54.54,0,0,1,0-1.08h5.41l.54.54-.54.54Zm1.62,185.93a.54.54,0,1,1,0-1.08h5.4a.48.48,0,0,1,.54.54l-.54.54Z"/><path class="cls-1" d="M1033.55,49.8a.48.48,0,0,1-.54-.54l.54-.54h3.78l.54.54-.54.54Zm0,58.37a.48.48,0,0,1-.54-.54l.54-.54h3.78l.54.54-.54.54Zm14.59-58.37a.54.54,0,0,1,0-1.08h3.78l.54.54-.54.54Zm0,58.37a.54.54,0,0,1,0-1.08h3.78l.54.54-.54.54Zm263.22,1.62H1051.93a1.91,1.91,0,0,1-2.16-2.16V49.25a1.91,1.91,0,0,1,2.16-2.16h259.44a1.92,1.92,0,0,1,2.16,2.16v58.37A1.91,1.91,0,0,1,1311.37,109.79ZM1051.93,33.58l-.54-.54V29.26a.48.48,0,0,1,.54-.54l.54.54V33Zm-.54,15.67V46a.48.48,0,0,1,.54-.54.48.48,0,0,1,.54.54v3.24l-.54.54A.47.47,0,0,1,1051.39,49.25Zm.54,33.51h-.54V81.68L1086,49.25c0-.35.08-.54.27-.54s.27.19.27.54c.35,0,.54.09.54.27s-.19.27-.54.27Zm0-29.19h-.54V52.5l5.4-3.78a1.6,1.6,0,0,1,1.08.54.48.48,0,0,1-.54.54Zm0,58.37-.54-.54v-3.78a.48.48,0,0,1,.54-.54l.54.54v3.78Zm0,14.59-.54-.54v-3.78a.48.48,0,0,1,.54-.54.48.48,0,0,1,.54.54V126Zm2.16-21.08H1309.2v-54H1054.09Zm3.24,2.7h-.54v-1.08L1113,49.25a.68.68,0,0,1,1.08,0v.54l-56.21,58.37Zm27,0a.67.67,0,0,1,0-1.08l57.83-57.83c0-.35.08-.54.27-.54s.27.19.27.54c.35,0,.54.09.54.27s-.19.27-.54.27l-57.83,58.37Zm29.19,0H1113v-1.08l58.37-57.83c0-.35.08-.54.27-.54s.27.19.27.54c.35,0,.54.09.54.27s-.18.27-.54.27l-57.83,58.37Zm20-58.37a.54.54,0,1,1,0-1.08h3.78l.54.54-.54.54Zm0,329.7a.54.54,0,1,1,0-1.08h3.78l.54.54-.54.54Zm9.19-271.33h-.54v-1.08l58.37-57.83c0-.35.08-.54.27-.54s.27.19.27.54v.54Zm7-58.37a.48.48,0,0,1-.54-.54l.54-.54h3.78l.54.54-.54.54Zm0,329.7a.48.48,0,0,1-.54-.54l.54-.54h3.78l.54.54-.54.54Zm61.61,1.62h-57.83a1.91,1.91,0,0,1-2.16-2.16V49.25a1.91,1.91,0,0,1,2.16-2.16h57.83a1.92,1.92,0,0,1,2.16,2.16V379A1.91,1.91,0,0,1,1211.37,381.12ZM1153,9.26v-7a.54.54,0,1,1,1.08,0v7l-.54.54A.48.48,0,0,1,1153,9.26Zm0,20v-7a.54.54,0,1,1,1.08,0v7l-.54.54A.48.48,0,0,1,1153,29.26Zm0,20V40.07a.48.48,0,0,1,.54-.54l.54.54v9.19l-.54.54A.48.48,0,0,1,1153,49.25Zm0,338.89V379a.48.48,0,0,1,.54-.54l.54.54v9.19l-.54.54A.48.48,0,0,1,1153,388.14Zm0,20V399a.48.48,0,0,1,.54-.54l.54.54v9.19l-.54.54A.48.48,0,0,1,1153,408.14Zm0,20v-9.19a.48.48,0,0,1,.54-.54l.54.54v9.19l-.54.54A.48.48,0,0,1,1153,428.14Zm2.7-51.35h53.51V51.42h-53.51Zm15.67-268.62a.67.67,0,0,1,0-1.08l57.83-57.83a.68.68,0,0,1,1.08,0v.54l-58.37,58.37Zm29.19,0a.67.67,0,0,1,0-1.08l57.83-57.83c0-.35.08-.54.27-.54s.27.19.27.54c.35,0,.54.09.54.27s-.18.27-.54.27l-57.83,58.37ZM1211.37,9.8a.47.47,0,0,1-.54-.54v-7l.54-.54a.48.48,0,0,1,.54.54v7A.48.48,0,0,1,1211.37,9.8Zm0,20a.47.47,0,0,1-.54-.54v-7l.54-.54a.48.48,0,0,1,.54.54v7A.48.48,0,0,1,1211.37,29.8Zm0,20a.47.47,0,0,1-.54-.54V40.07l.54-.54.54.54v9.19A.48.48,0,0,1,1211.37,49.8Zm3.78,0h-3.78a.47.47,0,0,1-.54-.54l.54-.54h3.78l.54.54A.48.48,0,0,1,1215.16,49.8Zm-3.78,338.89a.48.48,0,0,1-.54-.54V379l.54-.54.54.54v9.19A.48.48,0,0,1,1211.37,388.68Zm3.78-9.19h-3.78a.48.48,0,0,1-.54-.54l.54-.54h3.78l.54.54A.48.48,0,0,1,1215.16,379.49Zm-3.78,29.19a.48.48,0,0,1-.54-.54V399l.54-.54.54.54v9.19A.48.48,0,0,1,1211.37,408.68Zm0,20a.48.48,0,0,1-.54-.54v-9.19l.54-.54.54.54v9.19A.48.48,0,0,1,1211.37,428.68ZM1229.75,49.8H1226a.47.47,0,0,1-.54-.54l.54-.54h3.78l.54.54A.48.48,0,0,1,1229.75,49.8Zm0,329.7H1226a.48.48,0,0,1-.54-.54l.54-.54h3.78l.54.54A.48.48,0,0,1,1229.75,379.49Zm0-271.33h-.54v-1.08l58.37-57.83c0-.35.08-.54.27-.54s.27.19.27.54c.36,0,.54.09.54.27s-.18.27-.54.27l-57.83,58.37Zm29.19,0h-.54v-1.08l52.43-54.59h1.08v1.08Zm28.65,0a.67.67,0,0,1,0-1.08l23.24-25.4h1.08v1.08l-23.78,25.4Zm23.78-74.59-.54-.54V29.26l.54-.54.54.54V33A.48.48,0,0,1,1311.37,33.58Zm0,16.21a.48.48,0,0,1-.54-.54V46l.54-.54a.48.48,0,0,1,.54.54v3.24A.48.48,0,0,1,1311.37,49.8Zm0,0a.48.48,0,0,1-.54-.54l.54-.54h3.78l.54.54-.54.54Zm0,58.37a.48.48,0,0,1-.54-.54l.54-.54h3.78l.54.54-.54.54Zm0,3.78-.54-.54v-3.78l.54-.54.54.54v3.78A.48.48,0,0,1,1311.37,112Zm0,14.59-.54-.54v-3.78l.54-.54a.48.48,0,0,1,.54.54V126A.48.48,0,0,1,1311.37,126.55Zm20-76.75h-3.78a.48.48,0,0,1-.54-.54l.54-.54h3.78l.54.54A.48.48,0,0,1,1331.36,49.8Zm0,58.37h-3.78a.48.48,0,0,1-.54-.54l.54-.54h3.78l.54.54A.48.48,0,0,1,1331.36,108.17Z"/><path class="cls-1" d="M1290.29,379.49h-13l-.54-.54a.48.48,0,0,1,.54-.54h13a.48.48,0,0,1,.54.54Zm3.24,49.18-.54-.54,3.78-11.35h.54a.48.48,0,0,1,.54.54l-3.78,10.81A.48.48,0,0,1,1293.53,428.68Zm18.38-49.18H1301.1l-.54-.54a.48.48,0,0,1,.54-.54h10.81a.48.48,0,0,1,.54.54Zm-10.81,27h-.54V406l3.24-7a1.53,1.53,0,0,1,1.08-.54c.35.35.35.54,0,.54l-3.24,7.57Zm7-16.21-.54-.54,3.78-10.81.54-.54.54.54-3.78,10.81A.48.48,0,0,1,1308.12,390.3Zm3.78-9.19h-1.08a2.13,2.13,0,0,1-1.08-3.24l136.2-329.7q1.08-2.15,2.7-1.08c1.44.73,1.8,1.62,1.08,2.7l-135.66,329.7C1313.34,380.58,1312.63,381.12,1311.91,381.12Zm60,0h-60a2.16,2.16,0,0,1,0-4.32h60a2.16,2.16,0,0,1,0,4.32Zm-43.78-96.21h-10.81l-.54-.54a.48.48,0,0,1,.54-.54h10.81a.54.54,0,1,1,0,1.08Zm13-56.75a.54.54,0,1,1,0-1.08h10.81l.54.54-.54.54Zm7,56.75h-7l-.54-.54a.48.48,0,0,1,.54-.54h7a.54.54,0,1,1,0,1.08Zm3.24,143.77v-.54l3.78-11.35h.54c.35,0,.35.18,0,.54l-3.24,10.81-.54.54Zm16.76-143.77h-9.19l-.54-.54.54-.54h9.19a.54.54,0,1,1,0,1.08Zm-7,121.61h-.54c-.36,0-.36-.19,0-.54l1.62-7,.54-.54.54.54-1.62,7.57Zm3.24-178.36a.48.48,0,0,1-.54-.54l.54-.54h7.57l.54.54-.54.54Zm3.24,161.61,3.78-10.81a.48.48,0,0,1,.54-.54l.54.54-3.78,10.81-.54.54Zm4.32-8.65h-1.08a2.13,2.13,0,0,1-1.08-3.24l105.39-258.35c.72-1.44,1.62-1.8,2.7-1.08q2.15,0,1.08,2.7L1373.52,379.49A1.43,1.43,0,0,1,1371.9,381.12Zm3.24-1.62h-3.24l-.54-.54a.48.48,0,0,1,.54-.54h3.24a.54.54,0,1,1,0,1.08Zm11.35-94.59h-7.57l-.54-.54.54-.54h7.57a.48.48,0,0,1,.54.54Zm-3.78-56.75a.54.54,0,0,1,0-1.08h9.19l.54.54-.54.54Zm9.19,151.34h-3.78l-.54-.54a.48.48,0,0,1,.54-.54h3.78a.48.48,0,0,1,.54.54Zm17.84-94.59h-10.81l-.54-.54.54-.54h10.81a.54.54,0,0,1,0,1.08Zm0-56.75h-7a.54.54,0,0,1,0-1.08h7l.54.54A.48.48,0,0,1,1409.74,228.16Zm136.2,58.37h-136.2a2.16,2.16,0,1,1,0-4.32h136.2a2.16,2.16,0,0,1,0,4.32ZM1424.33,49.8h-10.81l-.54-.54a.48.48,0,0,1,.54-.54h10.81a.54.54,0,0,1,0,1.08Zm-5.94,234.57v-.54l56.21-56.75h1.08v1.08l-56.21,56.21-.54.54Zm4.32-56.21a.54.54,0,0,1,0-1.08h10.81l.54.54-.54.54Zm1.62,22.16a.48.48,0,0,0-.54-.54v-.54l22.16-22.16h.54a.68.68,0,0,1,0,1.08l-21.62,21.62Zm9.19-238.9H1433l-5.41-9.19V1.15a1.6,1.6,0,0,1,1.08.54l5.41,9.19A.48.48,0,0,1,1433.52,11.42Zm89.18,218.36h-89.18a2.16,2.16,0,0,1,0-4.32h89.18a2.16,2.16,0,0,1,0,4.32Zm-82.15-200-.54-.54-3.24-7V21.15a1.6,1.6,0,0,1,1.08.54l3.24,7V29.8Zm7.57,20H1437.3l-.54-.54a.48.48,0,0,1,.54-.54h10.81a.48.48,0,0,1,.54.54Zm0-2.16h-.54l-3.78-7.57a.54.54,0,1,1,1.08,0l3.78,7A.48.48,0,0,1,1448.11,47.63Zm-2.16,237.28v-.54c-.36,0-.54-.08-.54-.27s.18-.27.54-.27l57.83-56.75h1.08v1.08l-58.37,56.21A.48.48,0,0,1,1445.95,284.91Zm62.16-233.49h-60a1.91,1.91,0,0,1-2.16-2.16,1.91,1.91,0,0,1,2.16-2.16h60a1.92,1.92,0,0,1,2.16,2.16A1.91,1.91,0,0,1,1508.11,51.42Zm-60.54-1.62v-.54l3.78-9.19a.48.48,0,0,1,.54-.54c.35.36.35.54,0,.54l-3.24,9.19-.54.54Zm7.57,14.59-.54-.54-3.24-5.4V57.9h.54l3.78,5.4v1.08Zm2.16-34.59h-.54c-.36-.35-.36-.54,0-.54l1.62-7.57.54-.54c.35,0,.54.36.54,1.08l-1.62,7Zm5.41,53-.54-.54-3.78-7V74.12c.72,0,1.08.19,1.08.54l3.78,7a.48.48,0,0,1-.54.54Zm1.08-71.89,3.78-9.19.54-.54a1.6,1.6,0,0,1,.54,1.08l-3.78,8.65-.54.54Zm5.94,89.72h-.54L1465.95,93c-.36,0-.54-.08-.54-.27s.18-.27.54-.27h.54l3.78,7.57v.54Zm7,20-3.78-9.19v-.54h1.08l3.24,9.19v.54Zm107.56,260.52a2.11,2.11,0,0,1-2.16-1.62l-107-258.36c-1.08-1.8-.73-2.7,1.08-2.7,1.08-.72,2-.36,2.7,1.08l107,258.35a2.14,2.14,0,0,1-1.08,3.24Zm-109.72-96.75v-.54l49.19-49.18h1.08v.54l-49.18,49.18-.54.54Zm2.7-163.77h-.54c-.36-.35-.36-.54,0-.54l5.4-9.19c0-.35.08-.54.27-.54s.27.19.27.54c.35,0,.54.09.54.27s-.19.27-.54.27Zm8.65-20-.54-.54,3.78-7.57h1.08V93l-3.78,7.57Zm5.41-89.18h-.54l-3.24-9.19V1.15a1.6,1.6,0,0,1,1.08.54l3.24,9.19v.54Zm2.16,71.34a.47.47,0,0,1-.54-.54v-.54l3.78-7a.48.48,0,0,1,.54-.54.68.68,0,0,1,0,1.08l-3.24,7Zm5.41-53a.48.48,0,0,1-.54-.54l-3.78-7a1.56,1.56,0,0,1,.54-1.08.48.48,0,0,1,.54.54l3.78,7A1.57,1.57,0,0,1,1498.92,29.8Zm1.62,34.59a1.53,1.53,0,0,1-.54-1.08l3.78-5.4h.54l.54.54-3.78,5.4A.48.48,0,0,1,1500.54,64.39Zm7.57-14.59a.48.48,0,0,1-.54-.54l-3.78-9.19a.54.54,0,1,1,1.08,0l3.78,9.19A.48.48,0,0,1,1508.11,49.8Zm-3.78,235.11a.48.48,0,0,1-.54-.54v-.54L1533,256.26h.54a.68.68,0,0,1,0,1.08l-28.65,27Zm137.82,96.21a1.43,1.43,0,0,1-1.62-1.62L1505.94,49.8c-.73-1.08-.36-2,1.08-2.7q2.7-1.08,2.7,1.08l134.58,329.7a2.14,2.14,0,0,1-1.08,3.24Zm-134-333.48h-.54v-.54l3.24-7a1.57,1.57,0,0,1,1.08-.54c.35.36.35.54,0,.54l-3.24,7.57Zm10.81,2.16h-10.81l-.54-.54a.48.48,0,0,1,.54-.54h10.81a.48.48,0,0,1,.54.54Zm-4.32-21.08,3.78-7,.54-.54a1.6,1.6,0,0,1,.54,1.08l-3.78,7-.54.54A1.53,1.53,0,0,1,1514.59,28.72Zm8.11-17.3h-.54c-.36-.36-.36-.54,0-.54l3.24-9.19a1.56,1.56,0,0,1,1.08-.54V2.23Zm0,216.74a.54.54,0,1,1,0-1.08h10.81l.54.54-.54.54ZM1542.16,49.8h-12.43l-.54-.54a.48.48,0,0,1,.54-.54h12.43a.54.54,0,1,1,0,1.08Zm-8.65,235.11a.47.47,0,0,1-.54-.54v-.54l9.19-7.57a.48.48,0,0,1,.54.54c.35,0,.54.09.54.27s-.18.27-.54.27l-9.19,7Zm12.43-56.75a.48.48,0,0,1-.54-.54l.54-.54h7.57l.54.54-.54.54Zm10.81,56.75h-10.81l-.54-.54.54-.54h10.81a.54.54,0,0,1,0,1.08Zm3.78,94.59h-10.81l-.54-.54a.48.48,0,0,1,.54-.54h10.81a.54.54,0,1,1,0,1.08Zm10.81-151.34h-7a.54.54,0,0,1,0-1.08h7l.54.54A.48.48,0,0,1,1571.34,228.16Zm5.4,56.75h-7l-.54-.54a.48.48,0,0,1,.54-.54h7a.54.54,0,1,1,0,1.08Zm7.57,94.59H1573.5L1573,379a.48.48,0,0,1,.54-.54h10.81a.48.48,0,0,1,.54.54Zm57.83,1.62h-57.83a2.16,2.16,0,0,1,0-4.32h57.83a2.16,2.16,0,0,1,0,4.32Zm-50.81-153h-7a.54.54,0,0,1,0-1.08h7l.54.54A.48.48,0,0,1,1591.34,228.16Zm-3.78,162.15v-.54L1583.77,379v-.54c.72,0,1.08.19,1.08.54l3.24,10.81v.54Zm9.19-105.4h-9.19l-.54-.54.54-.54h9.19a.54.54,0,1,1,0,1.08Zm-1.62,121.61h-.54L1593,399v-.54a1.56,1.56,0,0,1,1.08.54l1.62,7A.48.48,0,0,1,1595.13,406.52Zm9.19,22.16a.48.48,0,0,1-.54-.54L1600,417.33a.47.47,0,0,1,.54-.54h.54l3.78,11.35A.48.48,0,0,1,1604.31,428.68Zm-2.16-200.52a.48.48,0,0,1-.54-.54l.54-.54h13l.54.54-.54.54Zm13,56.75h-7.57l-.54-.54.54-.54h7.57a.48.48,0,0,1,.54.54Zm23.78,0h-13l-.54-.54a.48.48,0,0,1,.54-.54h13a.48.48,0,0,1,.54.54Zm8.65,105.4H1647L1641.61,379a.48.48,0,0,1,.54-.54h.54l5.4,11.35v.54Zm7.57-10.81h-13l-.54-.54.54-.54h13a.48.48,0,0,1,.54.54Zm0,27h-.54l-3.78-7.57a.54.54,0,1,1,1.08,0l3.78,7A.48.48,0,0,1,1655.12,406.52Zm7,22.16a.48.48,0,0,1-.54-.54l-3.24-10.81v-.54h.54l3.78,11.35v.54Zm16.21-49.18h-12.43l-.54-.54a.48.48,0,0,1,.54-.54h12.43a.54.54,0,0,1,0,1.08Z"/><path class="cls-1" d="M1706.46,49.8h-10.81l-.54-.54a.48.48,0,0,1,.54-.54h10.81a.54.54,0,0,1,0,1.08Zm0,329.7h-10.81l-.54-.54a.48.48,0,0,1,.54-.54h10.81a.54.54,0,0,1,0,1.08Zm20-329.7h-9.19l-.54-.54.54-.54h9.19a.54.54,0,1,1,0,1.08Zm1.62,329.7h-10.81l-.54-.54.54-.54h10.81a.54.54,0,1,1,0,1.08Zm58.37,1.62h-58.37a1.91,1.91,0,0,1-2.16-2.16V49.25a1.91,1.91,0,0,1,2.16-2.16h58.37a1.92,1.92,0,0,1,2.16,2.16V379A1.91,1.91,0,0,1,1786.45,381.12ZM1728.08,9.8l-.54-.54V1.69l.54-.54.54.54V9.26A.48.48,0,0,1,1728.08,9.8Zm0,20-.54-.54V21.69l.54-.54.54.54v7.57A.48.48,0,0,1,1728.08,29.8Zm0,20-.54-.54V40.07l.54-.54a.48.48,0,0,1,.54.54v9.19A.48.48,0,0,1,1728.08,49.8Zm0,12.43c-.36,0-.54-.08-.54-.27s.18-.27.54-.27l12.43-13h1.08V49.8l-13,12.43Zm0,144.31V206c-.36,0-.54-.08-.54-.27s.18-.27.54-.27l57.83-58.37H1787v1.08L1728.62,206A.48.48,0,0,1,1728.08,206.54Zm0,29.19v-.54c-.36,0-.54-.08-.54-.27s.18-.27.54-.27l57.83-58.37H1787v1.08l-58.37,57.83A.48.48,0,0,1,1728.08,235.72Zm0,153-.54-.54V379l.54-.54a.48.48,0,0,1,.54.54v9.19A.48.48,0,0,1,1728.08,388.68Zm0,20-.54-.54V399l.54-.54a.48.48,0,0,1,.54.54v9.19A.48.48,0,0,1,1728.08,408.68Zm0,18.38-.54-.54v-7.57l.54-.54.54.54v7.57A.48.48,0,0,1,1728.08,427.06Zm0-337.27a.67.67,0,0,1,0-1.08l41.62-40h.54a.68.68,0,0,1,0,1.08l-41.62,40Zm0,29.19a.67.67,0,0,1,0-1.08l57.83-58.37H1787v1.08L1728.62,119Zm0,29.19a.67.67,0,0,1,0-1.08l57.83-58.37H1787v1.08l-58.37,58.37Zm0,29.19a.67.67,0,0,1,0-1.08l57.83-58.37H1787V119l-58.37,58.37Zm0,85.4a.67.67,0,0,1,0-1.08l57.83-56.21H1787V206l-58.37,56.75Zm0,29.19a.67.67,0,0,1,0-1.08l57.83-56.21H1787v.54l-58.37,56.75Zm0,29.19a.67.67,0,0,1,0-1.08l57.83-58.37H1787v1.08l-58.37,58.37Zm0,29.19a.67.67,0,0,1,0-1.08l57.83-58.37H1787v1.08l-58.37,58.37Zm0,29.19a.67.67,0,0,1,0-1.08L1785.91,320H1787v1.08l-58.37,58.37Zm2.16-2.7h54V51.42h-54Zm14.59-327h-7.57l-.54-.54.54-.54h7.57a.48.48,0,0,1,.54.54Zm20,58.37H1754l-.54-.54a.48.48,0,0,1,.54-.54h10.81a.48.48,0,0,1,.54.54Zm-10.81,213a.54.54,0,0,1,0-1.08h10.81l.54.54-.54.54Zm1.62,58.37h-.54v-1.08l30.81-29.19H1787v1.08l-30.81,29.19Zm9.19-329.7h-7.57l-.54-.54.54-.54h7.57a.48.48,0,0,1,.54.54Zm21.62,0h-10.81l-.54-.54a.48.48,0,0,1,.54-.54h10.81a.54.54,0,1,1,0,1.08Zm0,58.37h-10.81l-.54-.54a.48.48,0,0,1,.54-.54h10.81a.54.54,0,1,1,0,1.08Zm0,213h-10.81a.54.54,0,1,1,0-1.08h10.81l.54.54A.48.48,0,0,1,1786.45,321.12Zm57.83-269.7h-57.83a1.91,1.91,0,0,1-2.16-2.16,1.91,1.91,0,0,1,2.16-2.16h57.83a1.92,1.92,0,0,1,2.16,2.16A1.91,1.91,0,0,1,1844.28,51.42Zm0,58.37h-57.83a2.16,2.16,0,0,1,0-4.32h57.83a2.16,2.16,0,0,1,0,4.32Zm0,213h-57.83a2.16,2.16,0,0,1,0-4.32h57.83a2.16,2.16,0,0,1,0,4.32Zm0,58.37h-57.83a2.16,2.16,0,0,1,0-4.32h57.83a2.16,2.16,0,0,1,0,4.32Zm-57.83-1.62h-1.62l-.54-.54a.48.48,0,0,1,.54-.54h1.62a.54.54,0,1,1,0,1.08Zm0-369.7-.54-.54V1.69a.48.48,0,0,1,.54-.54l.54.54V9.26A.48.48,0,0,1,1786.45,9.8Zm0,20-.54-.54V21.69a.48.48,0,0,1,.54-.54l.54.54v7.57A.48.48,0,0,1,1786.45,29.8Zm0,20-.54-.54V40.07a.48.48,0,0,1,.54-.54.48.48,0,0,1,.54.54v9.19A.48.48,0,0,1,1786.45,49.8Zm0,338.89-.54-.54V379a.48.48,0,0,1,.54-.54.48.48,0,0,1,.54.54v9.19A.48.48,0,0,1,1786.45,388.68Zm0,20-.54-.54V399a.47.47,0,0,1,.54-.54.48.48,0,0,1,.54.54v9.19A.48.48,0,0,1,1786.45,408.68Zm0,0-.54-.54V399a.47.47,0,0,1,.54-.54.48.48,0,0,1,.54.54v9.19A.48.48,0,0,1,1786.45,408.68Zm0,20-.54-.54v-9.19a.47.47,0,0,1,.54-.54l.54.54v9.19A.48.48,0,0,1,1786.45,428.68Zm0-1.62-.54-.54v-7.57a.47.47,0,0,1,.54-.54l.54.54v7.57A.48.48,0,0,1,1786.45,427.06Zm57.29-45.94a2.16,2.16,0,0,1,0-4.32,157.3,157.3,0,0,0,63-12.7,163,163,0,0,0,86.48-86.75,163.78,163.78,0,0,0,0-126.47,163,163,0,0,0-86.48-86.75,157.45,157.45,0,0,0-63-12.7,1.91,1.91,0,0,1-2.16-2.16,1.91,1.91,0,0,1,2.16-2.16,164.3,164.3,0,0,1,63.51,12.43,166.44,166.44,0,0,1,90.53,90.53,170.51,170.51,0,0,1,0,127.83,164,164,0,0,1-36.21,54,166.62,166.62,0,0,1-54.32,36.75A164.14,164.14,0,0,1,1843.74,381.12Zm0-58.37a2.16,2.16,0,0,1,0-4.32,105.75,105.75,0,0,0,41.08-8.11,103.53,103.53,0,0,0,33.78-22.43,109.07,109.07,0,0,0,22.7-33.24,102.28,102.28,0,0,0,0-81.07,109.27,109.27,0,0,0-22.7-33.24,103.63,103.63,0,0,0-33.78-22.43,105.73,105.73,0,0,0-41.08-8.11,2.16,2.16,0,0,1,0-4.32,106.52,106.52,0,0,1,42.7,8.65,117.18,117.18,0,0,1,35.13,23.24,106.82,106.82,0,0,1,23.78,34.32,108.41,108.41,0,0,1,0,84.86,106.71,106.71,0,0,1-23.78,34.32,117,117,0,0,1-35.13,23.24A106.39,106.39,0,0,1,1843.74,322.74Zm.54-213a1.91,1.91,0,0,1-2.16-2.16V49.25a2.16,2.16,0,1,1,4.32,0v58.37A1.91,1.91,0,0,1,1844.28,109.79Zm0,271.33a1.91,1.91,0,0,1-2.16-2.16V322.2a2.16,2.16,0,1,1,4.32,0V379A1.91,1.91,0,0,1,1844.28,381.12Zm0-371.32-.54-.54V1.69l.54-.54.54.54V9.26A.48.48,0,0,1,1844.28,9.8Zm0,20-.54-.54V21.69l.54-.54.54.54v7.57A.48.48,0,0,1,1844.28,29.8Zm0,20-.54-.54V40.07l.54-.54a.48.48,0,0,1,.54.54v9.19A.48.48,0,0,1,1844.28,49.8Zm0,63.78-.54-.54v-5.4l.54-.54a.48.48,0,0,1,.54.54V113A.48.48,0,0,1,1844.28,113.57Zm0,18.38-.54-.54v-7.57l.54-.54.54.54v7.57A.48.48,0,0,1,1844.28,131.95Zm0,173-.54-.54V299l.54-.54a.48.48,0,0,1,.54.54v5.4A.48.48,0,0,1,1844.28,304.91Zm0,17.84a.48.48,0,0,1-.54-.54v-7l.54-.54a.48.48,0,0,1,.54.54v7A.48.48,0,0,1,1844.28,322.74Zm0,65.94-.54-.54V379l.54-.54a.48.48,0,0,1,.54.54v9.19A.48.48,0,0,1,1844.28,388.68Zm0,20-.54-.54V399l.54-.54a.48.48,0,0,1,.54.54v9.19A.48.48,0,0,1,1844.28,408.68Zm0,20-.54-.54v-9.19l.54-.54.54.54v9.19A.48.48,0,0,1,1844.28,428.68Zm85.4-213h-10.81l-.54-.54.54-.54h10.81a.54.54,0,1,1,0,1.08Zm22.16,0H1941l-.54-.54a.48.48,0,0,1,.54-.54h10.81a.48.48,0,0,1,.54.54Zm57.83,1.62h-57.83a2.16,2.16,0,1,1,0-4.32h57.83a2.16,2.16,0,0,1,0,4.32Zm9.19-1.62h-9.19l-.54-.54.54-.54h9.19a.54.54,0,0,1,0,1.08Zm21.62,0h-8.65l-.54-.54a.48.48,0,0,1,.54-.54h8.65a.54.54,0,1,1,0,1.08Z"/><path class="cls-1" d="M2028.59,379.49h-13l-.54-.54a.48.48,0,0,1,.54-.54h13a.48.48,0,0,1,.54.54Zm3.24,49.18-.54-.54,3.78-11.35h.54a.48.48,0,0,1,.54.54l-3.78,10.81A.48.48,0,0,1,2031.84,428.68Zm18.38-49.18H2039.4l-.54-.54a.48.48,0,0,1,.54-.54h10.81a.48.48,0,0,1,.54.54Zm-10.81,27h-.54V406l3.24-7a1.53,1.53,0,0,1,1.08-.54c.35.35.35.54,0,.54l-3.24,7.57Zm7-16.21-.54-.54,3.78-10.81.54-.54.54.54L2047,389.76A.48.48,0,0,1,2046.43,390.3Zm3.78-9.19h-1.08a2.13,2.13,0,0,1-1.08-3.24l136.2-329.7q1.08-2.15,2.7-1.08c1.44.73,1.8,1.62,1.08,2.7l-135.66,329.7C2051.65,380.58,2050.93,381.12,2050.21,381.12Zm60,0h-60a2.16,2.16,0,0,1,0-4.32h60a2.16,2.16,0,0,1,0,4.32Zm-43.78-96.21h-10.81l-.54-.54a.48.48,0,0,1,.54-.54h10.81a.54.54,0,1,1,0,1.08Zm13-56.75a.54.54,0,1,1,0-1.08h10.81l.54.54-.54.54Zm7,56.75h-7l-.54-.54a.48.48,0,0,1,.54-.54h7a.54.54,0,1,1,0,1.08Zm3.24,143.77v-.54l3.78-11.35h.54c.35,0,.35.18,0,.54l-3.24,10.81-.54.54Zm16.76-143.77h-9.19l-.54-.54.54-.54h9.19a.54.54,0,1,1,0,1.08Zm-7,121.61h-.54c-.36,0-.36-.19,0-.54l1.62-7,.54-.54.54.54-1.62,7.57Zm3.24-178.36a.48.48,0,0,1-.54-.54l.54-.54h7.57l.54.54-.54.54Zm3.24,161.61,3.78-10.81a.48.48,0,0,1,.54-.54l.54.54L2107,389.76l-.54.54Zm4.32-8.65h-1.08a2.13,2.13,0,0,1-1.08-3.24l105.39-258.35c.72-1.44,1.62-1.8,2.7-1.08q2.15,0,1.08,2.7L2111.83,379.49A1.43,1.43,0,0,1,2110.21,381.12Zm3.24-1.62h-3.24l-.54-.54a.48.48,0,0,1,.54-.54h3.24a.54.54,0,1,1,0,1.08Zm11.35-94.59h-7.57l-.54-.54.54-.54h7.57a.48.48,0,0,1,.54.54ZM2121,228.16a.54.54,0,0,1,0-1.08h9.19l.54.54-.54.54Zm9.19,151.34h-3.78l-.54-.54a.48.48,0,0,1,.54-.54h3.78a.48.48,0,0,1,.54.54ZM2148,284.91h-10.81l-.54-.54.54-.54H2148a.54.54,0,0,1,0,1.08Zm0-56.75h-7a.54.54,0,0,1,0-1.08h7l.54.54A.48.48,0,0,1,2148,228.16Zm136.2,58.37H2148a2.16,2.16,0,1,1,0-4.32h136.2a2.16,2.16,0,0,1,0,4.32ZM2162.64,49.8h-10.81l-.54-.54a.48.48,0,0,1,.54-.54h10.81a.54.54,0,0,1,0,1.08Zm-5.94,234.57v-.54l56.21-56.75H2214v1.08l-56.21,56.21-.54.54Zm4.32-56.21a.54.54,0,0,1,0-1.08h10.81l.54.54-.54.54Zm1.62,22.16a.48.48,0,0,0-.54-.54v-.54l22.16-22.16h.54a.68.68,0,0,1,0,1.08l-21.62,21.62Zm9.19-238.9h-.54l-5.41-9.19V1.15a1.6,1.6,0,0,1,1.08.54l5.41,9.19A.48.48,0,0,1,2171.82,11.42ZM2261,229.78h-89.18a2.16,2.16,0,0,1,0-4.32H2261a2.16,2.16,0,0,1,0,4.32Zm-82.15-200-.54-.54-3.24-7V21.15a1.6,1.6,0,0,1,1.08.54l3.24,7V29.8Zm7.57,20h-10.81l-.54-.54a.48.48,0,0,1,.54-.54h10.81a.48.48,0,0,1,.54.54Zm0-2.16h-.54l-3.78-7.57a.54.54,0,1,1,1.08,0l3.78,7A.48.48,0,0,1,2186.42,47.63Zm-2.16,237.28v-.54c-.36,0-.54-.08-.54-.27s.18-.27.54-.27l57.83-56.75h1.08v1.08l-58.37,56.21A.48.48,0,0,1,2184.25,284.91Zm62.16-233.49h-60a1.91,1.91,0,0,1-2.16-2.16,1.91,1.91,0,0,1,2.16-2.16h60a1.92,1.92,0,0,1,2.16,2.16A1.91,1.91,0,0,1,2246.41,51.42Zm-60.54-1.62v-.54l3.78-9.19a.48.48,0,0,1,.54-.54c.35.36.35.54,0,.54L2187,49.25l-.54.54Zm7.57,14.59-.54-.54-3.24-5.4V57.9h.54l3.78,5.4v1.08Zm2.16-34.59h-.54c-.36-.35-.36-.54,0-.54l1.62-7.57.54-.54c.35,0,.54.36.54,1.08l-1.62,7Zm5.41,53-.54-.54-3.78-7V74.12c.72,0,1.08.19,1.08.54l3.78,7a.48.48,0,0,1-.54.54Zm1.08-71.89,3.78-9.19.54-.54a1.6,1.6,0,0,1,.54,1.08l-3.78,8.65-.54.54ZM2208,100.6h-.54L2204.25,93c-.36,0-.54-.08-.54-.27s.18-.27.54-.27h.54l3.78,7.57v.54Zm7,20-3.78-9.19v-.54h1.08l3.24,9.19v.54Zm107.56,260.52a2.11,2.11,0,0,1-2.16-1.62l-107-258.36c-1.08-1.8-.73-2.7,1.08-2.7,1.08-.72,2-.36,2.7,1.08l107,258.35a2.14,2.14,0,0,1-1.08,3.24ZM2212.9,284.37v-.54l49.19-49.18h1.08v.54L2214,284.37l-.54.54Zm2.7-163.77h-.54c-.36-.35-.36-.54,0-.54l5.4-9.19c0-.35.08-.54.27-.54s.27.19.27.54c.35,0,.54.09.54.27s-.19.27-.54.27Zm8.65-20-.54-.54,3.78-7.57h1.08V93l-3.78,7.57Zm5.41-89.18h-.54l-3.24-9.19V1.15a1.6,1.6,0,0,1,1.08.54l3.24,9.19v.54Zm2.16,71.34a.47.47,0,0,1-.54-.54v-.54l3.78-7a.48.48,0,0,1,.54-.54.68.68,0,0,1,0,1.08l-3.24,7Zm5.41-53a.48.48,0,0,1-.54-.54l-3.78-7a1.56,1.56,0,0,1,.54-1.08.48.48,0,0,1,.54.54l3.78,7A1.57,1.57,0,0,1,2237.22,29.8Zm1.62,34.59a1.53,1.53,0,0,1-.54-1.08l3.78-5.4h.54l.54.54-3.78,5.4A.48.48,0,0,1,2238.85,64.39Zm7.57-14.59a.48.48,0,0,1-.54-.54l-3.78-9.19a.54.54,0,1,1,1.08,0l3.78,9.19A.48.48,0,0,1,2246.41,49.8Zm-3.78,235.11a.48.48,0,0,1-.54-.54v-.54l29.19-27.57h.54a.68.68,0,0,1,0,1.08l-28.65,27Zm137.82,96.21a1.43,1.43,0,0,1-1.62-1.62L2244.25,49.8c-.73-1.08-.36-2,1.08-2.7q2.7-1.08,2.7,1.08l134.58,329.7a2.14,2.14,0,0,1-1.08,3.24Zm-134-333.48h-.54v-.54l3.24-7a1.57,1.57,0,0,1,1.08-.54c.35.36.35.54,0,.54L2247,47.63Zm10.81,2.16h-10.81l-.54-.54a.48.48,0,0,1,.54-.54h10.81a.48.48,0,0,1,.54.54Zm-4.32-21.08,3.78-7,.54-.54a1.6,1.6,0,0,1,.54,1.08l-3.78,7-.54.54A1.53,1.53,0,0,1,2252.9,28.72Zm8.11-17.3h-.54c-.36-.36-.36-.54,0-.54l3.24-9.19a1.56,1.56,0,0,1,1.08-.54V2.23Zm0,216.74a.54.54,0,1,1,0-1.08h10.81l.54.54-.54.54ZM2280.46,49.8H2268l-.54-.54a.48.48,0,0,1,.54-.54h12.43a.54.54,0,1,1,0,1.08Zm-8.65,235.11a.47.47,0,0,1-.54-.54v-.54l9.19-7.57a.48.48,0,0,1,.54.54c.35,0,.54.09.54.27s-.18.27-.54.27l-9.19,7Zm12.43-56.75a.48.48,0,0,1-.54-.54l.54-.54h7.57l.54.54-.54.54Zm10.81,56.75h-10.81l-.54-.54.54-.54h10.81a.54.54,0,0,1,0,1.08Zm3.78,94.59H2288l-.54-.54a.48.48,0,0,1,.54-.54h10.81a.54.54,0,1,1,0,1.08Zm10.81-151.34h-7a.54.54,0,0,1,0-1.08h7l.54.54A.48.48,0,0,1,2309.65,228.16Zm5.4,56.75h-7l-.54-.54a.48.48,0,0,1,.54-.54h7a.54.54,0,1,1,0,1.08Zm7.57,94.59h-10.81l-.54-.54a.48.48,0,0,1,.54-.54h10.81a.48.48,0,0,1,.54.54Zm57.83,1.62h-57.83a2.16,2.16,0,0,1,0-4.32h57.83a2.16,2.16,0,0,1,0,4.32Zm-50.81-153h-7a.54.54,0,0,1,0-1.08h7l.54.54A.48.48,0,0,1,2329.65,228.16Zm-3.78,162.15v-.54L2322.08,379v-.54c.72,0,1.08.19,1.08.54l3.24,10.81v.54Zm9.19-105.4h-9.19l-.54-.54.54-.54h9.19a.54.54,0,1,1,0,1.08Zm-1.62,121.61h-.54l-1.62-7.57v-.54a1.56,1.56,0,0,1,1.08.54l1.62,7A.48.48,0,0,1,2333.43,406.52Zm9.19,22.16a.48.48,0,0,1-.54-.54l-3.78-10.81a.47.47,0,0,1,.54-.54h.54l3.78,11.35A.48.48,0,0,1,2342.62,428.68Zm-2.16-200.52a.48.48,0,0,1-.54-.54l.54-.54h13l.54.54-.54.54Zm13,56.75h-7.57l-.54-.54.54-.54h7.57a.48.48,0,0,1,.54.54Zm23.78,0h-13l-.54-.54a.48.48,0,0,1,.54-.54h13a.48.48,0,0,1,.54.54Zm8.65,105.4h-.54L2379.91,379a.48.48,0,0,1,.54-.54h.54l5.4,11.35v.54Zm7.57-10.81h-13l-.54-.54.54-.54h13a.48.48,0,0,1,.54.54Zm0,27h-.54L2389.1,399a.54.54,0,1,1,1.08,0l3.78,7A.48.48,0,0,1,2393.43,406.52Zm7,22.16a.48.48,0,0,1-.54-.54l-3.24-10.81v-.54h.54l3.78,11.35v.54Zm16.21-49.18h-12.43l-.54-.54a.48.48,0,0,1,.54-.54h12.43a.54.54,0,0,1,0,1.08Z"/><rect class="cls-1" x="699" y="48.71" width="58.36" height="183.77"/><rect class="cls-1" x="929.79" y="48.71" width="57.83" height="186.47"/><rect class="cls-1" x="1153" y="108.17" width="58.54" height="269.87"/><polygon class="cls-1" points="1311.91 381.12 1371.9 379.5 1477.3 120.6 1584.86 378.95 1641.61 378.95 1508.11 48.72 1448.65 49.26 1311.91 381.12"/><polygon class="cls-1" points="1786.45 105.47 1843.74 107.63 1844.28 49.8 1786.99 49.26 1786.45 105.47"/><polygon class="cls-1" points="1786.45 322.74 1786.99 378.95 1843.74 378.95 1844.28 322.74 1786.45 322.74"/><polygon class="cls-1" points="2186.96 49.26 2050.21 376.79 2110.21 379.5 2215.6 120.6 2322.08 378.41 2380.45 378.41 2245.87 49.26 2186.96 49.26"/><path class="cls-1" d="M1997.78,150.06a166.44,166.44,0,0,0-90.53-90.53,164.21,164.21,0,0,0-62.86-12.42l-.1,0h-.54a1.91,1.91,0,0,0-2.16,2.16,2.2,2.2,0,0,0,.54,1.62V106a2.2,2.2,0,0,0-.54,1.62,1.91,1.91,0,0,0,2.16,2.16,105.73,105.73,0,0,1,41.08,8.11,103.63,103.63,0,0,1,33.78,22.43,109.27,109.27,0,0,1,22.7,33.24,102.28,102.28,0,0,1,0,81.07,109.07,109.07,0,0,1-22.7,33.24,103.53,103.53,0,0,1-33.78,22.43,105.75,105.75,0,0,1-41.08,8.11,1.91,1.91,0,0,0-2.16,2.16,2.2,2.2,0,0,0,.54,1.62v55.13a2.2,2.2,0,0,0-.54,1.62,1.91,1.91,0,0,0,2.16,2.16h.54l.11,0a164,164,0,0,0,62.86-12.42,166.62,166.62,0,0,0,54.32-36.75,164,164,0,0,0,36.21-54,170.51,170.51,0,0,0,0-127.83Z"/><path class="cls-2" d="M991.13,235.79a2.93,2.93,0,0,0-5.2-2.16H932a2.18,2.18,0,0,0-2.19-1.08c-1.62,0-2.43.73-2.43,2.16a80.67,80.67,0,0,1-6.74,32.7,85.22,85.22,0,0,1-44.71,44.86,82,82,0,0,1-65.2,0A86.27,86.27,0,0,1,784,294.16a83.91,83.91,0,0,1-24.18-56.86,2.24,2.24,0,0,0,.48-1.51,2.09,2.09,0,0,0-.63-1.67c-.21-1-1-1.57-2.34-1.57a2.18,2.18,0,0,0-2.19,1.08H700.67a1.89,1.89,0,0,0-1.94-1.08,1.91,1.91,0,0,0-2.16,2.16A145.45,145.45,0,0,0,739.88,339a146,146,0,0,0,103.43,42.7,146.64,146.64,0,0,0,56.58-11.08A144.56,144.56,0,0,0,947.28,339a150.47,150.47,0,0,0,31.67-47.83,145.57,145.57,0,0,0,11-53.41A1.88,1.88,0,0,0,991.13,235.79Z"/><rect class="cls-2" x="1051.93" y="49.8" width="258.89" height="57.83"/><polygon class="cls-2" points="1433.52 228.16 1522.16 227.62 1545.4 284.37 1409.74 284.91 1433.52 228.16"/><polygon class="cls-2" points="1730.24 51.42 1728.08 379.5 1786.99 378.95 1786.99 49.26 1730.24 51.42"/><polygon class="cls-2" points="2172.36 228.16 2261 227.62 2284.25 284.37 2148.58 284.91 2172.36 228.16"/></svg>