<svg id="Layer_1" data-name="Layer 1" xmlns="http://www.w3.org/2000/svg" viewBox="0 0 2422 429"><title>logo-long</title><polygon points="247.63 0.05 0 428.95 190.83 428.95 438.46 0.05 247.63 0.05"/><polygon points="617 273.58 467.8 15.15 378.18 170.38 480.72 347.99 482.65 351.34 404.94 273.72 318.59 273.72 228.97 428.95 527.38 428.95 617 273.72 616.92 273.72 617 273.58"/><path d="M679.25,48.27H676a.54.54,0,1,1,0-1.08h3.25l.54.54A.48.48,0,0,1,679.25,48.27Zm1.63,186.57h-3.26a.54.54,0,0,1,0-1.08h3.26a.54.54,0,0,1,0,1.08ZM692.26,48.27a.54.54,0,1,1,0-1.08h3.8l.54.54-.54.54ZM840.59,380.73A147,147,0,0,1,693.35,233.21a2.17,2.17,0,1,1,4.34,0,140.5,140.5,0,0,0,11.14,55.86,143.06,143.06,0,0,0,76.34,76.2,143.72,143.72,0,0,0,110.85,0,143,143,0,0,0,76.33-76.2,140.51,140.51,0,0,0,11.15-55.86,2.17,2.17,0,0,1,4.35,0,146.47,146.47,0,0,1-11.14,56.68,151,151,0,0,1-31.78,48,145.06,145.06,0,0,1-47.55,31.73A147.15,147.15,0,0,1,840.59,380.73ZM693.89,234.84a.54.54,0,0,1,0-1.08h3.8a.48.48,0,0,1,.54.54l-.54.54Zm2.19,1.63a1.92,1.92,0,0,1-2.19-2.17V47.73a2.19,2.19,0,0,1,4.37,0V234.3A1.92,1.92,0,0,1,696.07,236.47ZM754.62,49.9H696.07a1.92,1.92,0,0,1-2.19-2.17,1.93,1.93,0,0,1,2.19-2.17h58.54a1.93,1.93,0,0,1,2.19,2.17A1.92,1.92,0,0,1,754.62,49.9Zm.54,186.57H696.62a2.17,2.17,0,1,1,0-4.34h58.53a2.17,2.17,0,1,1,0,4.34ZM695.52,7.59V.54a.54.54,0,1,1,1.08,0V7.59l-.54.54A.48.48,0,0,1,695.52,7.59Zm0,0V.54a.54.54,0,1,1,1.08,0V7.59l-.54.54A.48.48,0,0,1,695.52,7.59Zm0,20.07V20.61a.54.54,0,1,1,1.08,0v7.05l-.54.54A.48.48,0,0,1,695.52,27.66Zm0,0V20.61a.54.54,0,1,1,1.08,0v7.05l-.54.54A.48.48,0,0,1,695.52,27.66Zm0,20.07V38.51a.48.48,0,0,1,.54-.54l.54.54v9.22l-.54.54A.48.48,0,0,1,695.52,47.73Zm0,0V38.51a.48.48,0,0,1,.54-.54l.54.54v9.22l-.54.54A.48.48,0,0,1,695.52,47.73Zm4,207.18H699v-1.08l20.07-20.07h1.08v1.08L700.08,254.9Zm5.67,23.86h-.54v-1.08l43.93-43.93h.54a.68.68,0,0,1,0,1.08l-43.39,43.93Zm7.12,20.07a.67.67,0,0,1,0-1.08l45.56-43.93h.54a.68.68,0,0,1,0,1.08l-45.56,43.93Zm11.39,18.44a.48.48,0,0,1-.54-.54c-.36-.36-.36-.54,0-.54l41.76-42.3H766V275l-42.31,41.76Zm12.47,16.27h-.54v-1.08L778,290.7c0-.36.09-.54.27-.54s.27.19.27.54v.54l-41.76,42.3Zm14.65,14.64h-.54V347.1l42.3-41.76c0-.36.09-.54.27-.54s.27.19.27.54v.54l-41.76,42.3Zm89.76-26A84.86,84.86,0,0,1,806,315.11a91.21,91.21,0,0,1-28-19,89.85,89.85,0,0,1-19-28.2,86.17,86.17,0,0,1-7.07-34.71c0-1.44.81-2.17,2.44-2.17s2.44.73,2.44,2.17a84.43,84.43,0,0,0,24.32,59.66A86.57,86.57,0,0,0,807.88,311a82.29,82.29,0,0,0,65.42,0,85.51,85.51,0,0,0,44.86-45,81,81,0,0,0,6.76-32.81c0-1.44.81-2.17,2.44-2.17s2.44.73,2.44,2.17a86.15,86.15,0,0,1-7.08,34.71,87.68,87.68,0,0,1-19.31,28.2,94.63,94.63,0,0,1-28.29,19A84.85,84.85,0,0,1,840.59,322.16Zm-86-85.69a1.92,1.92,0,0,1-2.17-2.17V47.73a2.17,2.17,0,1,1,4.34,0V234.3A1.92,1.92,0,0,1,754.63,236.47ZM754.36,8.14c-.19,0-.27-.18-.27-.54L753.55.54l.81-.54c.54,0,.81.19.81.54l-.54,7.05C754.63,8,754.54,8.14,754.36,8.14Zm0,20.07c-.19,0-.27-.18-.27-.54l-.54-7.05.81-.54c.54,0,.81.19.81.54l-.54,7.05C754.63,28,754.54,28.2,754.36,28.2Zm0,20.07c-.19,0-.27-.18-.27-.54l-.54-9.22.81-.54.81.54-.54,9.22C754.63,48.09,754.54,48.27,754.36,48.27Zm5.68,0h-5.42a.48.48,0,0,1-.54-.54l.54-.54H760l.54.54A.48.48,0,0,1,760,48.27Zm1.63,186.57h-5.42a.48.48,0,0,1-.54-.54l.54-.54h5.42a.54.54,0,1,1,0,1.08Zm7.6,124.2h-.54c-.73,0-.73-.36,0-1.09l41.76-43.39c0-.72.36-.72,1.08,0v.54ZM770.9,48.27a.48.48,0,0,1-.54-.54l.54-.54h7.59l.54.54-.54.54Zm1.63,186.57a.48.48,0,0,1-.54-.54l.54-.54h7.59a.48.48,0,0,1,.54.54l-.54.54Zm14.65,133.42h-.54v-1.08L834.36,320c0-.36.09-.54.27-.54s.27.19.27.54c.36,0,.54.09.54.27s-.19.27-.54.27l-47.18,47.73Zm21.69,7.59v-.54c-.36,0-.54-.09-.54-.27s.18-.27.54-.27l32.54-33.08h1.08v1.09l-33.08,32.54A.48.48,0,0,1,808.87,375.85Zm26,3.25h-.54c-.36,0-.54-.08-.54-.27s.18-.27.54-.27l7-7.59L980.25,233.75h.54v1.08L842.49,371.51Zm7.05,1.63a1.92,1.92,0,0,1-2.17-2.17v-56.4a2.17,2.17,0,1,1,4.34,0v56.4A1.92,1.92,0,0,1,842,380.73Zm-.27-74.84c-.19,0-.27-.18-.27-.54l-.54-3.25c0-.36.27-.54.81-.54s.81.19.81.54l-.54,3.25C842,305.71,841.86,305.89,841.68,305.89Zm0,16.81-.27-.54-.54-5.42c0-.36.27-.54.81-.54s.81.19.81.54l-.54,5.42C842,322.52,841.86,322.7,841.68,322.7Zm0,65.62c-.19,0-.27-.19-.27-.54l-.54-9.22c0-.36.27-.54.81-.54l.81.54-.54,9.22C842,388.14,841.86,388.32,841.68,388.32Zm0,20.07c-.19,0-.27-.19-.27-.54l-.54-9.22c0-.36.27-.54.81-.54l.81.54-.54,9.22C842,408.2,841.86,408.39,841.68,408.39Zm0,20.07c-.19,0-.27-.19-.27-.54l-.54-9.22c0-.36.27-.54.81-.54l.81.54-.54,9.22C842,428.27,841.86,428.46,841.68,428.46Zm.27-85.69h-.54v-1.09l25.49-23.86H868v1.08l-25.49,23.86Zm23.86,34.71h-.54v-1.08L985.67,256c0-.36.09-.54.27-.54s.27.19.27.54v.54ZM904.32,48.27a.54.54,0,1,1,0-1.08h5.42l.54.54-.54.54Zm1.63,186.57a.54.54,0,1,1,0-1.08h5.42a.48.48,0,0,1,.54.54l-.54.54Zm1.63,129.62H907v-.54l64-64c0-.36.08-.54.27-.54s.27.19.27.54c.36,0,.54.09.54.27s-.19.27-.54.27l-63.45,64ZM927.64,48.27h-5.42a.48.48,0,0,1-.54-.54l.54-.54h5.42l.54.54A.48.48,0,0,1,927.64,48.27Zm1.63,186.57h-5.42a.48.48,0,0,1-.54-.54l.54-.54h5.42a.54.54,0,1,1,0,1.08ZM926,258.7h-.54c-.73-.72-.73-1.08,0-1.08L951,233.75h.54a.68.68,0,0,1,0,1.08ZM986.2,49.9H927.12a1.92,1.92,0,0,1-2.19-2.17c0-1.44.9-2.17,2.71-2.17h58.57a1.92,1.92,0,0,1,2.17,2.17A1.92,1.92,0,0,1,986.2,49.9ZM927.64,236.47a1.92,1.92,0,0,1-2.17-2.17V47.73a2.17,2.17,0,1,1,4.34,0V234.3A1.92,1.92,0,0,1,927.64,236.47Zm59.12,0H928.18a2.17,2.17,0,0,1,0-4.34h58.57a2.17,2.17,0,0,1,0,4.34ZM927.37,8.14c-.19,0-.27-.18-.27-.54L926.56.54l.81-.54c.54,0,.81.19.81.54l-.54,7.05C927.64,8,927.55,8.14,927.37,8.14Zm0,20.07c-.19,0-.27-.18-.27-.54l-.54-7.05.81-.54c.54,0,.81.19.81.54l-.54,7.05C927.64,28,927.55,28.2,927.37,28.2Zm0,20.07c-.19,0-.27-.18-.27-.54l-.54-9.22.81-.54.81.54-.54,9.22C927.64,48.09,927.55,48.27,927.37,48.27Zm58.84,188.2A1.92,1.92,0,0,1,984,234.3V47.73a2.17,2.17,0,1,1,4.34,0V234.3A1.92,1.92,0,0,1,986.22,236.47Zm2.71-188.2h-3.25a.54.54,0,1,1,0-1.08h3.25l.54.54A.48.48,0,0,1,988.93,48.27ZM985.67,7.59V.54a.54.54,0,1,1,1.08,0V7.59l-.54.54A.48.48,0,0,1,985.67,7.59Zm0,20.07V20.61a.54.54,0,1,1,1.08,0v7.05l-.54.54A.48.48,0,0,1,985.67,27.66Zm0,20.07V38.51a.48.48,0,0,1,.54-.54l.54.54v9.22l-.54.54A.48.48,0,0,1,985.67,47.73Zm4.88,187.11H987.3a.54.54,0,1,1,0-1.08h3.25a.54.54,0,0,1,0,1.08Zm9.76-186.57a.54.54,0,0,1,0-1.08h5.42l.54.54-.54.54Zm1.63,186.57a.54.54,0,1,1,0-1.08h5.42a.48.48,0,0,1,.54.54l-.54.54Z"/><path d="M1031.22,48.81a.48.48,0,0,1-.54-.54l.54-.54h3.8l.54.54-.54.54Zm0,58.57a.48.48,0,0,1-.54-.54l.54-.54h3.8l.54.54-.54.54Zm14.64-58.57a.54.54,0,0,1,0-1.08h3.8l.54.54-.54.54Zm0,58.57a.54.54,0,0,1,0-1.08h3.8l.54.54-.54.54ZM1310,109H1049.66a1.92,1.92,0,0,1-2.17-2.17V48.27a1.92,1.92,0,0,1,2.17-2.17H1310a1.92,1.92,0,0,1,2.17,2.17v58.57A1.92,1.92,0,0,1,1310,109ZM1049.66,32.54l-.54-.54V28.2a.48.48,0,0,1,.54-.54l.54.54V32Zm-.54,15.73V45a.48.48,0,0,1,.54-.54.48.48,0,0,1,.54.54v3.25l-.54.54A.48.48,0,0,1,1049.12,48.27Zm.54,33.63h-.54V80.81l34.71-32.54c0-.36.09-.54.27-.54s.27.19.27.54c.36,0,.54.09.54.27s-.19.27-.54.27Zm0-29.29h-.54V51.52l5.42-3.8a1.6,1.6,0,0,1,1.08.54.48.48,0,0,1-.54.54Zm0,58.57-.54-.54v-3.8a.48.48,0,0,1,.54-.54l.54.54v3.8Zm0,14.64-.54-.54v-3.8a.48.48,0,0,1,.54-.54.48.48,0,0,1,.54.54v3.8Zm2.17-21.15h256V50.44h-256Zm3.26,2.71h-.54V106.3l56.4-58a.68.68,0,0,1,1.08,0v.54l-56.4,58.57Zm27.12,0a.67.67,0,0,1,0-1.08l58-58c0-.36.08-.54.27-.54s.27.19.27.54c.36,0,.54.09.54.27s-.19.27-.54.27l-58,58.57Zm29.29,0h-.54V106.3l58.57-58c0-.36.09-.54.27-.54s.27.19.27.54c.36,0,.54.09.54.27s-.19.27-.54.27l-58,58.57Zm20.07-58.57a.54.54,0,1,1,0-1.08h3.8l.54.54-.54.54Zm0,330.83a.54.54,0,1,1,0-1.09h3.8l.54.54-.54.54Zm9.22-272.26h-.54V106.3l58.57-58c0-.36.09-.54.27-.54s.27.19.27.54v.54Zm7.05-58.57a.48.48,0,0,1-.54-.54l.54-.54h3.8l.54.54-.54.54Zm0,330.83a.48.48,0,0,1-.54-.54l.54-.54h3.8l.54.54-.54.54Zm61.83,1.63h-58a1.92,1.92,0,0,1-2.17-2.17V48.27a1.92,1.92,0,0,1,2.17-2.17h58a1.92,1.92,0,0,1,2.17,2.17V379.1A1.92,1.92,0,0,1,1209.66,381.27ZM1151.08,8.14V1.08a.54.54,0,1,1,1.08,0V8.14l-.54.54A.48.48,0,0,1,1151.08,8.14Zm0,20.07V21.15a.54.54,0,1,1,1.08,0V28.2l-.54.54A.48.48,0,0,1,1151.08,28.2Zm0,20.07V39a.48.48,0,0,1,.54-.54l.54.54v9.22l-.54.54A.48.48,0,0,1,1151.08,48.27Zm0,340.05V379.1a.48.48,0,0,1,.54-.54l.54.54v9.22l-.54.54A.48.48,0,0,1,1151.08,388.32Zm0,20.07v-9.22a.48.48,0,0,1,.54-.54l.54.54v9.22l-.54.54A.48.48,0,0,1,1151.08,408.39Zm0,20.07v-9.22a.48.48,0,0,1,.54-.54l.54.54v9.22l-.54.54A.48.48,0,0,1,1151.08,428.46Zm2.71-51.52h53.69V50.44H1153.8Zm15.73-269.55a.67.67,0,0,1,0-1.08l58-58a.68.68,0,0,1,1.08,0v.54l-58.57,58.57Zm29.29,0a.67.67,0,0,1,0-1.08l58-58c0-.36.09-.54.27-.54s.27.19.27.54c.36,0,.54.09.54.27s-.19.27-.54.27l-58,58.57Zm10.85-98.71a.48.48,0,0,1-.54-.54V1.08l.54-.54a.48.48,0,0,1,.54.54V8.14A.48.48,0,0,1,1209.66,8.68Zm0,20.07a.48.48,0,0,1-.54-.54V21.15l.54-.54a.48.48,0,0,1,.54.54V28.2A.48.48,0,0,1,1209.66,28.74Zm0,20.07a.48.48,0,0,1-.54-.54V39l.54-.54.54.54v9.22A.48.48,0,0,1,1209.66,48.81Zm3.8,0h-3.8a.48.48,0,0,1-.54-.54l.54-.54h3.8l.54.54A.48.48,0,0,1,1213.45,48.81Zm-3.8,340.05a.48.48,0,0,1-.54-.54V379.1l.54-.54.54.54v9.22A.48.48,0,0,1,1209.66,388.87Zm3.8-9.22h-3.8a.48.48,0,0,1-.54-.54l.54-.54h3.8l.54.54A.48.48,0,0,1,1213.45,379.65Zm-3.8,29.29a.48.48,0,0,1-.54-.54v-9.22l.54-.54.54.54v9.22A.48.48,0,0,1,1209.66,408.93Zm0,20.07a.48.48,0,0,1-.54-.54v-9.22l.54-.54.54.54v9.22A.48.48,0,0,1,1209.66,429ZM1228.1,48.81h-3.8a.48.48,0,0,1-.54-.54l.54-.54h3.8l.54.54A.48.48,0,0,1,1228.1,48.81Zm0,330.83h-3.8a.48.48,0,0,1-.54-.54l.54-.54h3.8l.54.54A.48.48,0,0,1,1228.1,379.65Zm0-272.26h-.54V106.3l58.57-58c0-.36.09-.54.27-.54s.27.19.27.54c.36,0,.54.09.54.27s-.19.27-.54.27l-58,58.57Zm29.29,0h-.54V106.3l52.61-54.78h1.08v1.08Zm28.74,0a.67.67,0,0,1,0-1.08l23.32-25.49h1.08V81.9l-23.86,25.49ZM1310,32.54l-.54-.54V28.2l.54-.54.54.54V32A.48.48,0,0,1,1310,32.54Zm0,16.27a.48.48,0,0,1-.54-.54V45l.54-.54a.48.48,0,0,1,.54.54v3.25A.48.48,0,0,1,1310,48.81Zm0,0a.48.48,0,0,1-.54-.54l.54-.54h3.8l.54.54-.54.54Zm0,58.57a.48.48,0,0,1-.54-.54l.54-.54h3.8l.54.54-.54.54Zm0,3.8-.54-.54v-3.8l.54-.54.54.54v3.8A.48.48,0,0,1,1310,111.18Zm0,14.64-.54-.54v-3.8l.54-.54a.48.48,0,0,1,.54.54v3.8A.48.48,0,0,1,1310,125.83Zm20.07-77h-3.8a.48.48,0,0,1-.54-.54l.54-.54h3.8l.54.54A.48.48,0,0,1,1330.06,48.81Zm0,58.57h-3.8a.48.48,0,0,1-.54-.54l.54-.54h3.8l.54.54A.48.48,0,0,1,1330.06,107.39Z"/><path d="M1288.84,379.65h-13l-.54-.54a.48.48,0,0,1,.54-.54h13a.48.48,0,0,1,.54.54ZM1292.1,429l-.54-.54,3.8-11.39h.54a.48.48,0,0,1,.54.54l-3.8,10.85A.48.48,0,0,1,1292.1,429Zm18.44-49.35h-10.85l-.54-.54a.48.48,0,0,1,.54-.54h10.85a.48.48,0,0,1,.54.54Zm-10.85,27.12h-.54v-.54l3.26-7.05a1.53,1.53,0,0,1,1.08-.54c.36.36.36.54,0,.54l-3.26,7.59Zm7-16.27-.54-.54L1310,379.1l.54-.54.54.54-3.8,10.85A.48.48,0,0,1,1306.74,390.49Zm3.8-9.22h-1.08a2.14,2.14,0,0,1-1.08-3.25L1445,47.19q1.08-2.16,2.71-1.09c1.44.73,1.81,1.63,1.08,2.71L1312.7,379.65C1312,380.73,1311.26,381.27,1310.54,381.27Zm60.2,0h-60.2a2.17,2.17,0,0,1,0-4.34h60.2a2.17,2.17,0,0,1,0,4.34Zm-43.93-96.54H1316l-.54-.54a.48.48,0,0,1,.54-.54h10.85a.54.54,0,1,1,0,1.08Zm13-56.95a.54.54,0,1,1,0-1.09h10.85l.54.54-.54.54Zm7,56.95h-7l-.54-.54a.48.48,0,0,1,.54-.54h7a.54.54,0,1,1,0,1.08ZM1350.13,429v-.54l3.8-11.39h.54c.36,0,.36.18,0,.54l-3.25,10.85-.54.54Zm16.81-144.27h-9.22l-.54-.54.54-.54h9.22a.54.54,0,1,1,0,1.08Zm-7,122h-.54c-.36,0-.36-.19,0-.54l1.63-7.05.54-.54.54.54-1.63,7.59Zm3.25-179a.48.48,0,0,1-.54-.54l.54-.54h7.59l.54.54-.54.54ZM1366.4,390l3.8-10.85a.48.48,0,0,1,.54-.54l.54.54L1367.48,390l-.54.54Zm4.34-8.68h-1.08a2.14,2.14,0,0,1-1.08-3.25l105.76-259.24c.72-1.44,1.63-1.81,2.71-1.08q2.16,0,1.08,2.71L1372.36,379.65A1.44,1.44,0,0,1,1370.74,381.27Zm3.25-1.63h-3.25l-.54-.54a.48.48,0,0,1,.54-.54H1374a.54.54,0,1,1,0,1.09Zm11.39-94.91h-7.59l-.54-.54.54-.54h7.59a.48.48,0,0,1,.54.54Zm-3.8-56.95a.54.54,0,0,1,0-1.09h9.22l.54.54-.54.54Zm9.22,151.86H1387l-.54-.54a.48.48,0,0,1,.54-.54h3.8a.48.48,0,0,1,.54.54Zm17.9-94.91h-10.85l-.54-.54.54-.54h10.85a.54.54,0,0,1,0,1.08Zm0-56.95h-7.05a.54.54,0,0,1,0-1.09h7.05l.54.54A.48.48,0,0,1,1408.7,227.79Zm136.67,58.57H1408.7a2.17,2.17,0,1,1,0-4.34h136.67a2.17,2.17,0,0,1,0,4.34Zm-122-237.55H1412.5l-.54-.54a.48.48,0,0,1,.54-.54h10.85a.54.54,0,0,1,0,1.08Zm-6,235.38v-.54l56.4-56.95h1.09v1.09l-56.4,56.4-.54.54Zm4.34-56.4a.54.54,0,0,1,0-1.09h10.85l.54.54-.54.54Zm1.63,22.24a.48.48,0,0,0-.54-.54v-.54L1445,226.7h.54a.69.69,0,0,1,0,1.09l-21.69,21.69Zm9.22-239.72H1432l-5.42-9.22V0a1.6,1.6,0,0,1,1.08.54l5.42,9.22A.48.48,0,0,1,1432.56,10.31Zm89.49,219.11h-89.49a2.17,2.17,0,0,1,0-4.34h89.49a2.17,2.17,0,0,1,0,4.34ZM1439.62,28.74l-.54-.54-3.25-7.05V20.07a1.6,1.6,0,0,1,1.08.54l3.25,7.05v1.08Zm7.59,20.07h-10.85l-.54-.54a.48.48,0,0,1,.54-.54h10.85a.48.48,0,0,1,.54.54Zm0-2.17h-.54l-3.8-7.59a.54.54,0,1,1,1.08,0l3.8,7A.48.48,0,0,1,1447.21,46.64ZM1445,284.73v-.54c-.36,0-.54-.08-.54-.27s.18-.27.54-.27l58-56.95h1.08v1.09l-58.57,56.4A.48.48,0,0,1,1445,284.73Zm62.37-234.3h-60.2a1.92,1.92,0,0,1-2.17-2.17,1.92,1.92,0,0,1,2.17-2.17h60.2a1.92,1.92,0,0,1,2.17,2.17A1.92,1.92,0,0,1,1507.41,50.44Zm-60.74-1.63v-.54l3.8-9.22a.48.48,0,0,1,.54-.54c.36.36.36.54,0,.54l-3.26,9.22-.54.54Zm7.59,14.64-.54-.54-3.26-5.42v-.54h.54l3.8,5.42v1.08Zm2.17-34.71h-.54c-.36-.36-.36-.54,0-.54l1.63-7.59.54-.54c.36,0,.54.36.54,1.08L1457,28.2Zm5.42,53.15-.54-.54-3.8-7.05V73.22c.72,0,1.09.19,1.09.54l3.8,7.05a.48.48,0,0,1-.54.54Zm1.08-72.13,3.8-9.22.54-.54a1.6,1.6,0,0,1,.54,1.08L1464,9.76l-.54.54Zm6,90h-.54l-3.26-7.59c-.36,0-.54-.09-.54-.27s.18-.27.54-.27h.54l3.8,7.59v.54Zm7.05,20.07-3.8-9.22v-.54h1.08l3.25,9.22v.54Zm107.93,261.41a2.12,2.12,0,0,1-2.17-1.63L1474.33,120.4c-1.08-1.8-.73-2.71,1.08-2.71,1.08-.72,2-.36,2.71,1.08L1585.51,378a2.15,2.15,0,0,1-1.08,3.25Zm-110.1-97.08v-.54l49.35-49.35h1.08v.54l-49.35,49.35-.54.54Zm2.71-164.33H1476c-.36-.36-.36-.54,0-.54l5.42-9.22c0-.36.09-.54.27-.54s.27.19.27.54c.36,0,.54.09.54.27s-.19.27-.54.27Zm8.68-20.07-.54-.54,3.8-7.59h1.08v.54l-3.8,7.59Zm5.42-89.49h-.54l-3.25-9.22V0a1.6,1.6,0,0,1,1.08.54l3.26,9.22v.54Zm2.17,71.59a.48.48,0,0,1-.54-.54v-.54l3.8-7.05a.48.48,0,0,1,.54-.54.68.68,0,0,1,0,1.08l-3.25,7.05Zm5.42-53.15a.48.48,0,0,1-.54-.54l-3.8-7.05a1.57,1.57,0,0,1,.54-1.08.48.48,0,0,1,.54.54l3.8,7.05A1.57,1.57,0,0,1,1498.19,28.74Zm1.63,34.71a1.54,1.54,0,0,1-.54-1.08l3.8-5.42h.54l.54.54-3.8,5.42A.48.48,0,0,1,1499.82,63.45Zm7.59-14.64a.48.48,0,0,1-.54-.54l-3.8-9.22a.54.54,0,1,1,1.08,0l3.8,9.22A.48.48,0,0,1,1507.41,48.81Zm-3.8,235.92a.48.48,0,0,1-.54-.54v-.54L1532.36,256h.54a.69.69,0,0,1,0,1.09l-28.74,27.12Zm138.3,96.54a1.44,1.44,0,0,1-1.63-1.63l-135-330.83c-.73-1.08-.36-2,1.08-2.71Q1509,45,1509,47.19l135,330.83a2.15,2.15,0,0,1-1.08,3.25ZM1507.41,46.64h-.54V46.1l3.25-7a1.58,1.58,0,0,1,1.09-.54c.36.36.36.54,0,.54L1508,46.64Zm10.85,2.17h-10.85l-.54-.54a.48.48,0,0,1,.54-.54h10.85a.48.48,0,0,1,.54.54Zm-4.34-21.15,3.8-7.05.54-.54a1.6,1.6,0,0,1,.54,1.08L1515,28.2l-.54.54A1.54,1.54,0,0,1,1513.92,27.66Zm8.14-17.35h-.54c-.36-.36-.36-.54,0-.54l3.26-9.22a1.57,1.57,0,0,1,1.08-.54V1.08Zm0,217.48a.54.54,0,1,1,0-1.09h10.85l.54.54-.54.54Zm19.52-179H1529.1l-.54-.54a.48.48,0,0,1,.54-.54h12.47a.54.54,0,1,1,0,1.08Zm-8.68,235.92a.48.48,0,0,1-.54-.54v-.54l9.22-7.59a.48.48,0,0,1,.54.54c.36,0,.54.09.54.27s-.19.27-.54.27l-9.22,7Zm12.47-56.95a.48.48,0,0,1-.54-.54l.54-.54H1553l.54.54-.54.54Zm10.85,56.95h-10.85l-.54-.54.54-.54h10.85a.54.54,0,0,1,0,1.08Zm3.79,94.91h-10.85l-.54-.54a.48.48,0,0,1,.54-.54H1560a.54.54,0,1,1,0,1.09Zm10.85-151.86h-7.05a.54.54,0,0,1,0-1.09h7.05l.54.54A.48.48,0,0,1,1570.86,227.79Zm5.42,56.95h-7l-.54-.54a.48.48,0,0,1,.54-.54h7a.54.54,0,1,1,0,1.08Zm7.59,94.91H1573l-.54-.54a.48.48,0,0,1,.54-.54h10.85a.48.48,0,0,1,.54.54Zm58,1.63h-58a2.17,2.17,0,0,1,0-4.34h58a2.17,2.17,0,0,1,0,4.34Zm-51-153.48h-7.05a.54.54,0,0,1,0-1.09h7.05l.54.54A.48.48,0,0,1,1590.93,227.79Zm-3.8,162.7V390l-3.8-10.85v-.54c.72,0,1.08.19,1.08.54l3.25,10.85v.54Zm9.22-105.76h-9.22l-.54-.54.54-.54h9.22a.54.54,0,1,1,0,1.08Zm-1.63,122h-.54l-1.63-7.59v-.54a1.57,1.57,0,0,1,1.09.54l1.63,7.05A.48.48,0,0,1,1594.73,406.76Zm9.22,22.24a.48.48,0,0,1-.54-.54l-3.8-10.85a.48.48,0,0,1,.54-.54h.54l3.8,11.39A.48.48,0,0,1,1603.95,429Zm-2.17-201.21a.48.48,0,0,1-.54-.54l.54-.54h13l.54.54-.54.54Zm13,56.95h-7.59l-.54-.54.54-.54h7.59a.48.48,0,0,1,.54.54Zm23.86,0h-13l-.54-.54a.48.48,0,0,1,.54-.54h13a.48.48,0,0,1,.54.54Zm8.68,105.76h-.54l-5.42-11.39a.48.48,0,0,1,.54-.54h.54l5.42,11.39v.54Zm7.59-10.85h-13l-.54-.54.54-.54h13a.48.48,0,0,1,.54.54Zm0,27.12h-.54l-3.8-7.59a.54.54,0,1,1,1.08,0l3.8,7.05A.48.48,0,0,1,1654.93,406.76Zm7,22.24a.48.48,0,0,1-.54-.54l-3.25-10.85v-.54h.54l3.79,11.39V429Zm16.27-49.35h-12.47l-.54-.54a.48.48,0,0,1,.54-.54h12.47a.54.54,0,0,1,0,1.09Z"/><path d="M1706.45,48.81H1695.6l-.54-.54a.48.48,0,0,1,.54-.54h10.85a.54.54,0,0,1,0,1.08Zm0,330.83H1695.6l-.54-.54a.48.48,0,0,1,.54-.54h10.85a.54.54,0,0,1,0,1.09Zm20.06-330.83h-9.22l-.54-.54.54-.54h9.22a.54.54,0,1,1,0,1.08Zm1.63,330.83h-10.85l-.54-.54.54-.54h10.85a.54.54,0,1,1,0,1.09Zm58.57,1.63h-58.57a1.92,1.92,0,0,1-2.17-2.17V48.27a1.92,1.92,0,0,1,2.17-2.17h58.57a1.92,1.92,0,0,1,2.17,2.17V379.1A1.92,1.92,0,0,1,1786.71,381.27ZM1728.14,8.68l-.54-.54V.54l.54-.54.54.54V8.14A.48.48,0,0,1,1728.14,8.68Zm0,20.07-.54-.54V20.61l.54-.54.54.54V28.2A.48.48,0,0,1,1728.14,28.74Zm0,20.07-.54-.54V39l.54-.54a.49.49,0,0,1,.54.54v9.22A.48.48,0,0,1,1728.14,48.81Zm0,12.47c-.36,0-.54-.09-.54-.27s.18-.27.54-.27l12.47-13h1.08v1.08l-13,12.47Zm0,144.81v-.54c-.36,0-.54-.09-.54-.27s.18-.27.54-.27l58-58.57h1.08v1.08l-58.57,58A.48.48,0,0,1,1728.14,206.09Zm0,29.29v-.54c-.36,0-.54-.08-.54-.27s.18-.27.54-.27l58-58.57h1.08v1.08l-58.57,58A.48.48,0,0,1,1728.14,235.38Zm0,153.49-.54-.54V379.1l.54-.54a.48.48,0,0,1,.54.54v9.22A.48.48,0,0,1,1728.14,388.87Zm0,20.07-.54-.54v-9.22l.54-.54a.48.48,0,0,1,.54.54v9.22A.48.48,0,0,1,1728.14,408.93Zm0,18.44-.54-.54v-7.59l.54-.54.54.54v7.59A.48.48,0,0,1,1728.14,427.37Zm0-338.43a.68.68,0,0,1,0-1.09l41.76-40.13h.54a.68.68,0,0,1,0,1.08l-41.76,40.13Zm0,29.29a.67.67,0,0,1,0-1.08l58-58.57h1.08v1.09l-58.57,58.57Zm0,29.29a.67.67,0,0,1,0-1.08l58-58.57h1.08v1.09l-58.57,58.57Zm0,29.29a.67.67,0,0,1,0-1.08l58-58.57h1.08v1.08l-58.57,58.57Zm0,85.69a.67.67,0,0,1,0-1.08l58-56.4h1.08v.54l-58.57,56.95Zm0,29.29a.67.67,0,0,1,0-1.08l58-56.4h1.08v.54l-58.57,56.95Zm0,29.29a.67.67,0,0,1,0-1.08l58-58.57h1.08v1.08l-58.57,58.57Zm0,29.29a.67.67,0,0,1,0-1.08l58-58.57h1.08v1.08l-58.57,58.57Zm0,29.29a.68.68,0,0,1,0-1.09l58-58.57h1.08v1.08l-58.57,58.57Zm2.17-2.71h54.24V50.44h-54.24ZM1745,48.81h-7.59l-.54-.54.54-.54H1745a.48.48,0,0,1,.54.54ZM1765,107.39h-10.85l-.54-.54a.48.48,0,0,1,.54-.54H1765a.48.48,0,0,1,.54.54Zm-10.85,213.69a.54.54,0,0,1,0-1.08H1765l.54.54-.54.54Zm1.63,58.57h-.54v-1.09l30.92-29.29h1.08v1.08l-30.91,29.29ZM1765,48.81h-7.59l-.54-.54.54-.54H1765a.48.48,0,0,1,.54.54Zm21.69,0h-10.85l-.54-.54a.48.48,0,0,1,.54-.54h10.85a.54.54,0,1,1,0,1.08Zm0,58.57h-10.85l-.54-.54a.48.48,0,0,1,.54-.54h10.85a.54.54,0,1,1,0,1.08Zm0,213.69h-10.85a.54.54,0,1,1,0-1.08h10.85l.54.54A.48.48,0,0,1,1786.71,321.07Zm58-270.63h-58a1.91,1.91,0,0,1-2.17-2.17,1.92,1.92,0,0,1,2.17-2.17h58a1.92,1.92,0,0,1,2.17,2.17A1.92,1.92,0,0,1,1844.75,50.44Zm0,58.57h-58a2.17,2.17,0,0,1,0-4.34h58a2.17,2.17,0,0,1,0,4.34Zm0,213.69h-58a2.17,2.17,0,0,1,0-4.34h58a2.17,2.17,0,0,1,0,4.34Zm0,58.57h-58a2.17,2.17,0,0,1,0-4.34h58a2.17,2.17,0,0,1,0,4.34Zm-58-1.63h-1.63l-.54-.54a.48.48,0,0,1,.54-.54h1.63a.54.54,0,1,1,0,1.09Zm0-371-.54-.54V.54a.48.48,0,0,1,.54-.54l.54.54V8.14A.48.48,0,0,1,1786.71,8.68Zm0,20.07-.54-.54V20.61a.48.48,0,0,1,.54-.54l.54.54V28.2A.48.48,0,0,1,1786.71,28.74Zm0,20.07-.54-.54V39a.48.48,0,0,1,.54-.54.49.49,0,0,1,.54.54v9.22A.48.48,0,0,1,1786.71,48.81Zm0,340.05-.54-.54V379.1a.48.48,0,0,1,.54-.54.48.48,0,0,1,.54.54v9.22A.48.48,0,0,1,1786.71,388.87Zm0,20.07-.54-.54v-9.22a.48.48,0,0,1,.54-.54.48.48,0,0,1,.54.54v9.22A.48.48,0,0,1,1786.71,408.93Zm0,0-.54-.54v-9.22a.48.48,0,0,1,.54-.54.48.48,0,0,1,.54.54v9.22A.48.48,0,0,1,1786.71,408.93Zm0,20.07-.54-.54v-9.22a.48.48,0,0,1,.54-.54l.54.54v9.22A.48.48,0,0,1,1786.71,429Zm0-1.63-.54-.54v-7.59a.48.48,0,0,1,.54-.54l.54.54v7.59A.48.48,0,0,1,1786.71,427.37Zm57.49-46.1a2.17,2.17,0,0,1,0-4.34,157.84,157.84,0,0,0,63.18-12.75,163.58,163.58,0,0,0,86.78-87,164.34,164.34,0,0,0,0-126.91,163.57,163.57,0,0,0-86.78-87,158,158,0,0,0-63.18-12.75,1.91,1.91,0,0,1-2.17-2.17,1.92,1.92,0,0,1,2.17-2.17,164.87,164.87,0,0,1,63.73,12.47,167,167,0,0,1,90.84,90.84,171.1,171.1,0,0,1,0,128.27,164.53,164.53,0,0,1-36.34,54.23,167.19,167.19,0,0,1-54.51,36.88A164.71,164.71,0,0,1,1844.2,381.27Zm0-58.57a2.17,2.17,0,0,1,0-4.34,106.12,106.12,0,0,0,41.22-8.14,103.88,103.88,0,0,0,33.9-22.51,109.45,109.45,0,0,0,22.78-33.35,102.63,102.63,0,0,0,0-81.35,109.64,109.64,0,0,0-22.78-33.35,104,104,0,0,0-33.9-22.51A106.1,106.1,0,0,0,1844.2,109a2.17,2.17,0,0,1,0-4.34,106.88,106.88,0,0,1,42.85,8.68,117.58,117.58,0,0,1,35.25,23.32,107.19,107.19,0,0,1,23.86,34.44,108.78,108.78,0,0,1,0,85.15,107.08,107.08,0,0,1-23.86,34.44A117.44,117.44,0,0,1,1887,314,106.75,106.75,0,0,1,1844.2,322.7Zm.54-213.69a1.92,1.92,0,0,1-2.17-2.17V48.27a2.17,2.17,0,1,1,4.34,0v58.57A1.92,1.92,0,0,1,1844.75,109Zm0,272.26a1.92,1.92,0,0,1-2.17-2.17V322.16a2.17,2.17,0,1,1,4.34,0V379.1A1.92,1.92,0,0,1,1844.75,381.27Zm0-372.6-.54-.54V.54l.54-.54.54.54V8.14A.48.48,0,0,1,1844.75,8.68Zm0,20.07-.54-.54V20.61l.54-.54.54.54V28.2A.48.48,0,0,1,1844.75,28.74Zm0,20.07-.54-.54V39l.54-.54a.48.48,0,0,1,.54.54v9.22A.48.48,0,0,1,1844.75,48.81Zm0,64-.54-.54v-5.42l.54-.54a.48.48,0,0,1,.54.54v5.42A.48.48,0,0,1,1844.75,112.81Zm0,18.44-.54-.54v-7.59l.54-.54.54.54v7.59A.48.48,0,0,1,1844.75,131.25Zm0,173.55-.54-.54v-5.42l.54-.54a.48.48,0,0,1,.54.54v5.42A.48.48,0,0,1,1844.75,304.8Zm0,17.9a.48.48,0,0,1-.54-.54v-7.05l.54-.54a.48.48,0,0,1,.54.54v7.05A.48.48,0,0,1,1844.75,322.7Zm0,66.17-.54-.54V379.1l.54-.54a.48.48,0,0,1,.54.54v9.22A.48.48,0,0,1,1844.75,388.87Zm0,20.07-.54-.54v-9.22l.54-.54a.48.48,0,0,1,.54.54v9.22A.48.48,0,0,1,1844.75,408.93Zm0,20.07-.54-.54v-9.22l.54-.54.54.54v9.22A.48.48,0,0,1,1844.75,429Zm85.69-213.69h-10.85l-.54-.54.54-.54h10.85a.54.54,0,1,1,0,1.09Zm22.24,0h-10.85l-.54-.54a.48.48,0,0,1,.54-.54h10.85a.48.48,0,0,1,.54.54Zm58,1.63h-58a2.17,2.17,0,1,1,0-4.34h58a2.17,2.17,0,0,1,0,4.34Zm9.22-1.63h-9.22l-.54-.54.54-.54h9.22a.54.54,0,0,1,0,1.09Zm21.69,0h-8.68l-.54-.54a.48.48,0,0,1,.54-.54h8.68a.54.54,0,1,1,0,1.09Z"/><path d="M2029.69,379.65h-13l-.54-.54a.48.48,0,0,1,.54-.54h13a.48.48,0,0,1,.54.54Zm3.26,49.35-.54-.54,3.8-11.39h.54a.48.48,0,0,1,.54.54l-3.8,10.85A.48.48,0,0,1,2032.94,429Zm18.44-49.35h-10.85l-.54-.54a.48.48,0,0,1,.54-.54h10.85a.48.48,0,0,1,.54.54Zm-10.85,27.12H2040v-.54l3.26-7.05a1.53,1.53,0,0,1,1.08-.54c.36.36.36.54,0,.54l-3.26,7.59Zm7-16.27L2047,390l3.79-10.85.54-.54.54.54-3.8,10.85A.48.48,0,0,1,2047.59,390.49Zm3.8-9.22h-1.08a2.14,2.14,0,0,1-1.08-3.25L2185.89,47.19Q2187,45,2188.6,46.1c1.44.73,1.81,1.63,1.08,2.71L2053.55,379.65C2052.82,380.73,2052.1,381.27,2051.38,381.27Zm60.2,0h-60.2a2.17,2.17,0,0,1,0-4.34h60.2a2.17,2.17,0,0,1,0,4.34Zm-43.93-96.54h-10.85l-.54-.54a.48.48,0,0,1,.54-.54h10.85a.54.54,0,1,1,0,1.08Zm13-56.95a.54.54,0,1,1,0-1.09h10.85l.54.54-.54.54Zm7,56.95h-7l-.54-.54a.48.48,0,0,1,.54-.54h7a.54.54,0,1,1,0,1.08ZM2091,429v-.54l3.8-11.39h.54c.36,0,.36.18,0,.54l-3.25,10.85-.54.54Zm16.81-144.27h-9.22l-.54-.54.54-.54h9.22a.54.54,0,1,1,0,1.08Zm-7,122h-.54c-.36,0-.36-.19,0-.54l1.63-7.05.54-.54.54.54-1.63,7.59Zm3.25-179a.48.48,0,0,1-.54-.54l.54-.54h7.59l.54.54-.54.54ZM2107.25,390l3.8-10.85a.48.48,0,0,1,.54-.54l.54.54L2108.33,390l-.54.54Zm4.34-8.68h-1.08a2.14,2.14,0,0,1-1.08-3.25l105.76-259.24c.72-1.44,1.63-1.81,2.71-1.08q2.16,0,1.08,2.71L2113.21,379.65A1.44,1.44,0,0,1,2111.59,381.27Zm3.25-1.63h-3.25l-.54-.54a.48.48,0,0,1,.54-.54h3.25a.54.54,0,1,1,0,1.09Zm11.39-94.91h-7.59l-.54-.54.54-.54h7.59a.48.48,0,0,1,.54.54Zm-3.8-56.95a.54.54,0,0,1,0-1.09h9.22l.54.54-.54.54Zm9.22,151.86h-3.8l-.54-.54a.48.48,0,0,1,.54-.54h3.8a.48.48,0,0,1,.54.54Zm17.9-94.91H2138.7l-.54-.54.54-.54h10.85a.54.54,0,0,1,0,1.08Zm0-56.95h-7.05a.54.54,0,0,1,0-1.09h7.05l.54.54A.48.48,0,0,1,2149.55,227.79Zm136.67,58.57H2149.55a2.17,2.17,0,1,1,0-4.34h136.67a2.17,2.17,0,0,1,0,4.34Zm-122-237.55h-10.85l-.54-.54a.48.48,0,0,1,.54-.54h10.85a.54.54,0,0,1,0,1.08Zm-6,235.38v-.54l56.4-56.95h1.09v1.09l-56.4,56.4-.54.54Zm4.34-56.4a.54.54,0,0,1,0-1.09h10.85l.54.54-.54.54Zm1.63,22.24a.48.48,0,0,0-.54-.54v-.54l22.24-22.24h.54a.69.69,0,0,1,0,1.09l-21.69,21.69Zm9.22-239.72h-.54l-5.42-9.22V0a1.6,1.6,0,0,1,1.08.54L2174,9.76A.48.48,0,0,1,2173.41,10.31Zm89.49,219.11h-89.49a2.17,2.17,0,0,1,0-4.34h89.49a2.17,2.17,0,0,1,0,4.34ZM2180.46,28.74l-.54-.54-3.25-7.05V20.07a1.6,1.6,0,0,1,1.08.54l3.25,7.05v1.08Zm7.59,20.07h-10.85l-.54-.54a.48.48,0,0,1,.54-.54h10.85a.48.48,0,0,1,.54.54Zm0-2.17h-.54l-3.8-7.59a.54.54,0,1,1,1.08,0l3.8,7A.48.48,0,0,1,2188.06,46.64Zm-2.17,238.09v-.54c-.36,0-.54-.08-.54-.27s.18-.27.54-.27l58-56.95H2245v1.09l-58.57,56.4A.48.48,0,0,1,2185.89,284.73Zm62.37-234.3h-60.2a1.92,1.92,0,0,1-2.17-2.17,1.92,1.92,0,0,1,2.17-2.17h60.2a1.92,1.92,0,0,1,2.17,2.17A1.92,1.92,0,0,1,2248.26,50.44Zm-60.74-1.63v-.54l3.8-9.22a.48.48,0,0,1,.54-.54c.36.36.36.54,0,.54l-3.26,9.22-.54.54Zm7.59,14.64-.54-.54-3.26-5.42v-.54h.54l3.8,5.42v1.08Zm2.17-34.71h-.54c-.36-.36-.36-.54,0-.54l1.63-7.59.54-.54c.36,0,.54.36.54,1.08l-1.63,7.05Zm5.42,53.15-.54-.54-3.8-7.05V73.22c.72,0,1.09.19,1.09.54l3.8,7.05a.48.48,0,0,1-.54.54Zm1.08-72.13,3.8-9.22.54-.54a1.6,1.6,0,0,1,.54,1.08l-3.8,8.68-.54.54Zm6,90h-.54L2206,92.2c-.36,0-.54-.09-.54-.27s.18-.27.54-.27h.54l3.8,7.59v.54Zm7.05,20.07-3.8-9.22v-.54h1.08l3.25,9.22v.54Zm107.93,261.41a2.12,2.12,0,0,1-2.17-1.63L2215.17,120.4c-1.08-1.8-.73-2.71,1.08-2.71,1.08-.72,2-.36,2.71,1.08L2326.36,378a2.15,2.15,0,0,1-1.08,3.25Zm-110.1-97.08v-.54L2264,234.3h1.08v.54l-49.35,49.35-.54.54Zm2.71-164.33h-.54c-.36-.36-.36-.54,0-.54l5.42-9.22c0-.36.09-.54.27-.54s.27.19.27.54c.36,0,.54.09.54.27s-.19.27-.54.27ZM2226,99.79l-.54-.54,3.8-7.59h1.08v.54l-3.8,7.59Zm5.42-89.49h-.54l-3.25-9.22V0a1.6,1.6,0,0,1,1.08.54L2232,9.76v.54Zm2.17,71.59a.48.48,0,0,1-.54-.54v-.54l3.8-7.05a.48.48,0,0,1,.54-.54.68.68,0,0,1,0,1.08l-3.25,7.05ZM2239,28.74a.48.48,0,0,1-.54-.54l-3.8-7.05a1.57,1.57,0,0,1,.54-1.08.48.48,0,0,1,.54.54l3.8,7.05A1.57,1.57,0,0,1,2239,28.74Zm1.63,34.71a1.54,1.54,0,0,1-.54-1.08l3.8-5.42h.54l.54.54-3.8,5.42A.48.48,0,0,1,2240.67,63.45Zm7.59-14.64a.48.48,0,0,1-.54-.54l-3.8-9.22a.54.54,0,1,1,1.08,0l3.8,9.22A.48.48,0,0,1,2248.26,48.81Zm-3.8,235.92a.48.48,0,0,1-.54-.54v-.54L2273.21,256h.54a.69.69,0,0,1,0,1.09L2245,284.19Zm138.3,96.54a1.44,1.44,0,0,1-1.63-1.63l-135-330.83c-.73-1.08-.36-2,1.08-2.71q2.71-1.08,2.71,1.09l135,330.83a2.15,2.15,0,0,1-1.08,3.25ZM2248.26,46.64h-.54V46.1l3.25-7a1.58,1.58,0,0,1,1.09-.54c.36.36.36.54,0,.54l-3.26,7.59Zm10.85,2.17h-10.85l-.54-.54a.48.48,0,0,1,.54-.54h10.85a.48.48,0,0,1,.54.54Zm-4.34-21.15,3.8-7.05.54-.54a1.6,1.6,0,0,1,.54,1.08l-3.8,7.05-.54.54A1.54,1.54,0,0,1,2254.76,27.66Zm8.14-17.35h-.54c-.36-.36-.36-.54,0-.54l3.26-9.22A1.57,1.57,0,0,1,2266.7,0V1.08Zm0,217.48a.54.54,0,1,1,0-1.09h10.85l.54.54-.54.54Zm19.52-179H2270l-.54-.54a.48.48,0,0,1,.54-.54h12.47a.54.54,0,1,1,0,1.08Zm-8.68,235.92a.48.48,0,0,1-.54-.54v-.54l9.22-7.59a.48.48,0,0,1,.54.54c.36,0,.54.09.54.27s-.19.27-.54.27l-9.22,7Zm12.47-56.95a.48.48,0,0,1-.54-.54l.54-.54h7.59l.54.54-.54.54Zm10.85,56.95h-10.85l-.54-.54.54-.54h10.85a.54.54,0,0,1,0,1.08Zm3.79,94.91H2290l-.54-.54a.48.48,0,0,1,.54-.54h10.85a.54.54,0,1,1,0,1.09Zm10.85-151.86h-7.05a.54.54,0,0,1,0-1.09h7.05l.54.54A.48.48,0,0,1,2311.71,227.79Zm5.42,56.95h-7l-.54-.54a.48.48,0,0,1,.54-.54h7a.54.54,0,1,1,0,1.08Zm7.59,94.91h-10.85l-.54-.54a.48.48,0,0,1,.54-.54h10.85a.48.48,0,0,1,.54.54Zm58,1.63h-58a2.17,2.17,0,0,1,0-4.34h58a2.17,2.17,0,0,1,0,4.34Zm-51-153.48h-7.05a.54.54,0,0,1,0-1.09h7.05l.54.54A.48.48,0,0,1,2331.78,227.79Zm-3.8,162.7V390l-3.8-10.85v-.54c.72,0,1.08.19,1.08.54l3.25,10.85v.54Zm9.22-105.76H2328l-.54-.54.54-.54h9.22a.54.54,0,1,1,0,1.08Zm-1.63,122H2335l-1.63-7.59v-.54a1.57,1.57,0,0,1,1.09.54l1.63,7.05A.48.48,0,0,1,2335.58,406.76ZM2344.8,429a.48.48,0,0,1-.54-.54l-3.8-10.85a.48.48,0,0,1,.54-.54h.54l3.8,11.39A.48.48,0,0,1,2344.8,429Zm-2.17-201.21a.48.48,0,0,1-.54-.54l.54-.54h13l.54.54-.54.54Zm13,56.95h-7.59l-.54-.54.54-.54h7.59a.48.48,0,0,1,.54.54Zm23.86,0h-13l-.54-.54a.48.48,0,0,1,.54-.54h13a.48.48,0,0,1,.54.54Zm8.68,105.76h-.54l-5.42-11.39a.48.48,0,0,1,.54-.54h.54l5.42,11.39v.54Zm7.59-10.85h-13l-.54-.54.54-.54h13a.48.48,0,0,1,.54.54Zm0,27.12h-.54l-3.8-7.59a.54.54,0,1,1,1.08,0l3.8,7.05A.48.48,0,0,1,2395.78,406.76Zm7,22.24a.48.48,0,0,1-.54-.54L2399,417.61v-.54h.54l3.79,11.39V429Zm16.27-49.35h-12.47l-.54-.54a.48.48,0,0,1,.54-.54h12.47a.54.54,0,0,1,0,1.09Z"/></svg>